<svg xmlns="http://www.w3.org/2000/svg" viewBox="0 0 130.587 20.863">
  <defs>
    <style>
      .cls-1 {
        fill: #fff;
        stroke: #fff;
        stroke-linejoin: round;
        stroke-width: 0.2px;
      }
    </style>
  </defs>
  <g id="Group_120" data-name="Group 120" transform="translate(-112.336 -691.044)">
    <path id="Path_3655" data-name="Path 3655" class="cls-1" d="M125.15,705a7.026,7.026,0,0,1-1.551,4.7,6.866,6.866,0,0,1-9.349,0,7.061,7.061,0,0,1-1.539-4.7v-6.178l.137-.6-.137-.081a8.147,8.147,0,0,1,.218-2.014,5.494,5.494,0,0,1,.736-1.769,5.793,5.793,0,0,1,1.034-1.334,5.73,5.73,0,0,1,2.2-1.171,2.591,2.591,0,0,1,.817-.136,2.283,2.283,0,0,1,.435.055,1.384,1.384,0,0,1,.544-.164h.218a5.784,5.784,0,0,1,4.682,1.838,7.026,7.026,0,0,1,1.551,4.7v.408l-.055.354.055.054h-.408l-.572.055h-.626l-2.313-.055h-.246v-1.252q0-1.986-1.333-2.368a1.4,1.4,0,0,0-.626-.081.111.111,0,0,0-.082-.028h-.027a1.8,1.8,0,0,0-1.959,1.579,7.4,7.4,0,0,0-.11.789c.019,0,.028.027.028.082v.789l-.055,1.061V700.7l.055,4.736q0,2.477,2.041,2.476a1.945,1.945,0,0,0,1.552-.626,1.77,1.77,0,0,0,.312-.462l.2-.408a1.236,1.236,0,0,1-.013-.313c.009-.1.013-.186.013-.259v-.9l.083-.245-.055-.245-.028-.218h.844l.844.054,1.606-.054.49.082.218-.055.163-.027Z"/>
    <path id="Path_3656" data-name="Path 3656" class="cls-1" d="M137.737,692.372a5.312,5.312,0,0,1,2.056,2.613,6.116,6.116,0,0,1,.434,2.285,1.334,1.334,0,0,1,.082.517v3.594l-.027,2.013.027.844v.409l-.082.163h.082a8.02,8.02,0,0,1-.516,2.966,3.572,3.572,0,0,1-1.334,1.824,4.378,4.378,0,0,1-1.361,1.088,6.281,6.281,0,0,1-2.667.654.659.659,0,0,0-.327.054l-.028-.054a5.741,5.741,0,0,1-4.667-1.837,7.068,7.068,0,0,1-1.538-4.7v-6.859q0-.381.054-1.034a3.2,3.2,0,0,1,.328-1.2,5.851,5.851,0,0,1,.516-1.416,5.414,5.414,0,0,1,1.035-1.388,4.753,4.753,0,0,1,1.224-.844,6.161,6.161,0,0,1,1.062-.408,5.827,5.827,0,0,1,1.333-.218,3.41,3.41,0,0,1,.49-.027h.163A6.466,6.466,0,0,1,137.737,692.372Zm-3.661,2.667a1.8,1.8,0,0,0-1.85,1.2,4.953,4.953,0,0,0-.218.871,1.717,1.717,0,0,1,.027.327v1.633l-.108,1.66.027,1.361.026,1.578-.053.953.053.381.055.245a3.594,3.594,0,0,0,.191,1.28,6.915,6.915,0,0,0,.408.789,1.248,1.248,0,0,0,.49.245,2.576,2.576,0,0,0,.952.163,1.947,1.947,0,0,0,1.552-.626,2.423,2.423,0,0,0,.436-.844l.081-.6v-8.137Q136.145,695.039,134.076,695.039Z"/>
    <path id="Path_3657" data-name="Path 3657" class="cls-1" d="M153.863,692.045l1.089.055,1.333-.055V711.1l-.272.027-4.927-.027-3.891-12.3v12.3H143.14V692.045l.272.081h.489l4.437-.081.381,1.2.463,1.742.6,1.8,2.449,7.212V701.6l.109-2.341-.028-2.15-.081-5.062Z"/>
    <path id="Path_3658" data-name="Path 3658" class="cls-1" d="M167.5,698.414v-.027l-.027-.218.081-.164-.054-.109-.109-.19q0-2.232-1.688-2.449a1.392,1.392,0,0,0-.2.027c-.1.018-.15.009-.15-.027a.025.025,0,0,0-.027-.028q-2.04,0-2.041,2.477v5.416l-.136,1.769.136.545q0,2.477,2.041,2.476,2.068,0,2.069-2.476v-1.089h-.463l-.462.109-1.171-.082-.136-.027H165.1V702.36l.137-.735-.109-.408-.028-.19h.654l.871.136,4.137-.109.681.109.108-.136-.108.272v.381l.053,1.66v.98l.028.408.027.272A7.026,7.026,0,0,1,170,709.7a5.784,5.784,0,0,1-4.682,1.837,6.418,6.418,0,0,1-3.633-.952,5.31,5.31,0,0,1-2.055-2.613,6.8,6.8,0,0,1-.463-2.068,4.225,4.225,0,0,1-.055-.735v-7.022a7.986,7.986,0,0,1,.722-3.457,5.118,5.118,0,0,1,2.191-2.341,5.023,5.023,0,0,1,2.341-.626,3.8,3.8,0,0,1,.762-.109h.19a5.931,5.931,0,0,1,4.382,1.525,6.425,6.425,0,0,1,1.8,3.973,3.879,3.879,0,0,1,.028.572,3.689,3.689,0,0,1-.028.517c.037-.054.055-.072.055-.054v.272Z"/>
    <path id="Path_3659" data-name="Path 3659" class="cls-1" d="M185.707,700.7a4.47,4.47,0,0,1-2.342,1.742l2.94,8.655h-2.559l-1.115.081-.6-.081-.49-1.524-.435-1.415-.436-1.389-1.034-3.238h-.762l-.245.054-.054-.054h-.027v3.783l-.055,2.1.027,1.007.028.543-.028.137H177.3l-1.007.027h-.763l-1.143-.027v-5.716l.081-4.6-.026-3.483-.027-2.613-.028-1.361v-1.279h6.151a7.91,7.91,0,0,1,2.2.3,3.536,3.536,0,0,1,1.688.98,4.505,4.505,0,0,1,1.117,1.061,5.368,5.368,0,0,1,.789,1.593,6.134,6.134,0,0,1,.272,1.809A4.952,4.952,0,0,1,185.707,700.7Zm-7.186,10.478V711.1h.028Zm3.879-12.723c.044-.154.076-.277.094-.368a.448.448,0,0,1-.053-.245v-.055a1.962,1.962,0,0,0-.028-.38l-.054-.409a3.553,3.553,0,0,0-.218-.462,1.612,1.612,0,0,0-1.007-.79,2.171,2.171,0,0,0-.218-.054,1.18,1.18,0,0,0-.218-.027h-1.142l-.545.027-.272-.027h-.19v4.246h.6l.49.109.354-.055.544-.054a1.891,1.891,0,0,0,1.062-.286,1.754,1.754,0,0,0,.653-.8A1.665,1.665,0,0,0,182.4,698.455Z"/>
    <path id="Path_3660" data-name="Path 3660" class="cls-1" d="M198.634,710.716l-.707-3.375h-2.5l-1.933.027-.544,2.068-.082.9-.054.381h-4.3l.273-.926.436-1.823.789-3.266.844-3.212,2.367-9.825h5.008l.463,1.9.517,2.64.735,2.912,2.994,11.6Zm-3.211-6.995,1.769.054-.762-3.7-.435-1.932-.191-.9-.027-.164-.055-.163v-.055l-.3,1.388-.408,1.851-.436,2.123-.3,1.5Z"/>
    <path id="Path_3661" data-name="Path 3661" class="cls-1" d="M215.713,693.651l-.109,1.116.054.408.055.272h-4.382l-.081,1.8.026,2.721.055,8.764-.081,1.959.108.191v.027h-.844l-.843.082-2.477-.082v-3.592l.027-3.484v-3.266l-.027-5.117h-4.355v-1.8l.027-.9-.027-.544v-.272h.027l-.027-.082h12.874Z"/>
    <path id="Path_3662" data-name="Path 3662" class="cls-1" d="M230.519,705.027v.626a6.422,6.422,0,0,1-.545,2.64,4.789,4.789,0,0,1-1.333,1.769,5.484,5.484,0,0,1-1.443.9,7.638,7.638,0,0,1-2.994.572,6.007,6.007,0,0,1-4.763-1.769,3.783,3.783,0,0,1-1.007-2.041,4.16,4.16,0,0,1-.381-1.306,5.256,5.256,0,0,1-.055-.871h2.1l1.144.081.544-.054.381-.027a2.73,2.73,0,0,0,.381,1.5,3.056,3.056,0,0,0,.572.625,4.877,4.877,0,0,0,.571.191l.436.054c.072,0,.117.019.136.055l.054-.055a2.132,2.132,0,0,0,1.484-.5,1.759,1.759,0,0,0,.558-1.375,2.2,2.2,0,0,0-.395-1.347,3.786,3.786,0,0,0-1.238-.993,4.346,4.346,0,0,0-1.225-.49,1.484,1.484,0,0,0-.381-.273l-.109-.026a8.325,8.325,0,0,1-3.457-2.5,5.6,5.6,0,0,1-1.089-3.43,5.346,5.346,0,0,1,.354-1.891,5.415,5.415,0,0,1,1.034-1.7,4.127,4.127,0,0,1,2.042-1.278,3.318,3.318,0,0,1,1.279-.409,6.34,6.34,0,0,1,1.034-.082,5.684,5.684,0,0,1,4.382,1.8,3.981,3.981,0,0,1,1.034,2.014,3.7,3.7,0,0,1,.3.952,3.108,3.108,0,0,1,.054.681h-4.082a2.232,2.232,0,0,0-.081-.626l-.137-.436a2.86,2.86,0,0,0-.354-.435,1.148,1.148,0,0,0-.517-.3.231.231,0,0,0-.3,0,.405.405,0,0,0-.191-.109H224.2a1.672,1.672,0,0,0-1.021.313,1.46,1.46,0,0,0-.557.8l-.136.436a.048.048,0,0,1,.054.054,2.022,2.022,0,0,0,.164.9,2.749,2.749,0,0,0,.571.762,6.343,6.343,0,0,0,.789.544q.6.354,1.959.98c.128.054.264.114.408.177l.463.2a2.431,2.431,0,0,1,.954.653,5.9,5.9,0,0,1,.979.653,4.211,4.211,0,0,1,1.089,1.306,2.482,2.482,0,0,1,.326,1.2,1.579,1.579,0,0,1,.218.681Z"/>
    <path id="Path_3663" data-name="Path 3663" class="cls-1" d="M236.479,694.522l-.136,2.613-.054,2.422-.055,3.374-.137,1.361.055.626.028.273h-2.124l-.707.108-.218-.108-.38-13.337h3.809Zm-.027,13.5-.082.817.027.626.055,1.442h-3.62l.082-.081v-.354l-.055-1.579.082-.843-.055-.436-.054-.3h3.62Z"/>
    <path id="Path_3664" data-name="Path 3664" class="cls-1" d="M242.467,694.522l-.137,2.613-.053,2.422-.055,3.374-.137,1.361.055.626.027.273h-2.123l-.707.108-.218-.108-.381-13.337h3.81Zm-.027,13.5-.082.817.027.626.055,1.442h-3.621l.082-.081v-.354l-.054-1.579.082-.843-.055-.436-.055-.3h3.621Z"/>
  </g>
</svg>
