<svg xmlns="http://www.w3.org/2000/svg" viewBox="0 0 97.798 50.132">
  <defs>
    <style>
      .cls-1 {
        fill: #231815;
      }
    </style>
  </defs>
  <g id="Group_21" data-name="Group 21" transform="translate(-1105.182 -206.564)">
    <g id="Group_2" data-name="Group 2">
      <path id="Path_38" data-name="Path 38" class="cls-1" d="M1171.636,214.535a.589.589,0,0,0-.566.036,3.344,3.344,0,0,1-1.564.77,1.27,1.27,0,0,0-.956.464l-.423.391c-.041.07-.217.174-.791.246-.1.066-.422.241-.277.419a6.97,6.97,0,0,1,.495.81,1.9,1.9,0,0,1-.534,1.837.909.909,0,0,1-.851.285c-.179-.035-.393-.145-.393-.354a.729.729,0,0,1,.324-.527.78.78,0,0,0-.034-1.2.927.927,0,0,0-.854,0,.716.716,0,0,0-.287,1.2,1.62,1.62,0,0,1-.107.527.615.615,0,0,1-.71.319,1.484,1.484,0,0,1-.7-1.627,5.911,5.911,0,0,1,.809-1.02,3.11,3.11,0,0,0-1.343-1.272,3.16,3.16,0,0,0-1.353,1.272,3.1,3.1,0,0,1,.673,1.02,1.7,1.7,0,0,1-.348,1.447.947.947,0,0,1-1.069.18.674.674,0,0,1-.106-.846.784.784,0,0,0-.147-1.1.753.753,0,0,0-.886,0c-.351.282-.313.64-.033,1.1a.9.9,0,0,1-.039.455c-.279.6-.7.532-1.2.321-.888-.849-.848-1.731.174-2.577a.394.394,0,0,0-.284-.669,3.184,3.184,0,0,1-1.811-1.135c-.425-.88-.991-.88-1.416,0a3.506,3.506,0,0,1-1.813,1.135c-.391.066-.5.387-.319.631,1.067.884,1.067,1.733.212,2.615-.5.211-.919.244-1.2-.321a.747.747,0,0,1-.036-.493c.284-.422.322-.811-.035-1.062a.817.817,0,0,0-.927,0,.786.786,0,0,0-.1,1.1.787.787,0,0,1-.1.813.937.937,0,0,1-1.07-.147,1.729,1.729,0,0,1-.353-1.447,3.613,3.613,0,0,1,.636-1.058,3.108,3.108,0,0,0-1.347-1.268,4.17,4.17,0,0,0-1.347,1.268,4.128,4.128,0,0,1,.815,1.058,1.378,1.378,0,0,1-.674,1.594c-.351.068-.6,0-.743-.321a2.355,2.355,0,0,1-.072-.492.728.728,0,0,0-.285-1.2,1,1,0,0,0-.891,0,.813.813,0,0,0-.033,1.2.611.611,0,0,1,.318.492c.035.244-.175.354-.386.389a.938.938,0,0,1-.821-.285,1.9,1.9,0,0,1-.569-1.868,3.905,3.905,0,0,1,.536-.777c.139-.18-.178-.387-.321-.421-.565-.109-.743-.176-.743-.246l-.43-.427a1.506,1.506,0,0,0-.957-.423,3.547,3.547,0,0,1-1.6-.775.547.547,0,0,0-.532-.036.454.454,0,0,0-.145.527,9.35,9.35,0,0,1,3.126,5.366h25.84a9.225,9.225,0,0,1,3.09-5.326.443.443,0,0,0-.108-.567"/>
      <path id="Path_39" data-name="Path 39" class="cls-1" d="M1141.673,214.182a6.8,6.8,0,0,1,1.918.741,1.475,1.475,0,0,0,1.139-.211,16.36,16.36,0,0,1,5.43-2.894c.32-.108.5,0,.394.318a5.121,5.121,0,0,0-1.774,2.507c0,.314.211.459.672.419a.974.974,0,0,1,.852.074c.32.069.568-.034.78-.532a4.061,4.061,0,0,1,2.306-3c.571-.069.813.181.744.715a3.73,3.73,0,0,0-.959,1.573c.038.535.32.712.786.569.285,0,.495-.25.673-.7a1.21,1.21,0,0,1,2.13,0c.178.453.4.7.642.7.493.143.78-.034.816-.569a3.712,3.712,0,0,0-.963-1.573c-.067-.534.18-.784.747-.715a4.069,4.069,0,0,1,2.307,3c.18.5.463.6.747.532a1.065,1.065,0,0,1,.886-.074c.462.04.673-.1.673-.419a5.1,5.1,0,0,0-1.775-2.507c-.1-.318.079-.426.394-.318a16.36,16.36,0,0,1,5.432,2.894,1.457,1.457,0,0,0,1.131.211,6.473,6.473,0,0,1,1.917-.741c.431-.073.563-.388.464-.885a1.9,1.9,0,0,0-1.419-.81.7.7,0,0,1-.636-.211,1.847,1.847,0,0,0-2.06-.771,2.049,2.049,0,0,0-1.779-.6,1.971,1.971,0,0,0-1.989-.561,2.052,2.052,0,0,0-2.092-.355,2.663,2.663,0,0,0-2.554.209,2.062,2.062,0,0,0-1.173-1.133v-.631h.926v-.916h-.926v-.95h-1.565v.95H1154v.916h.917v.631a1.982,1.982,0,0,0-1.169,1.133,2.675,2.675,0,0,0-2.556-.209,2.032,2.032,0,0,0-2.09.355,1.977,1.977,0,0,0-1.992.561,2.012,2.012,0,0,0-1.774.6,1.839,1.839,0,0,0-2.059.771.714.714,0,0,1-.643.211,1.886,1.886,0,0,0-1.416.81c-.1.5.037.812.457.885m14.064-4.626a1.021,1.021,0,0,1,.884,1.131c0,.639-.39,1.17-.884,1.17a1.083,1.083,0,0,1-.924-1.17,1.047,1.047,0,0,1,.924-1.131"/>
      <path id="Path_40" data-name="Path 40" class="cls-1" d="M1142.817,224.592h25.837v-2.4h-25.837Zm22.928-1.872a.71.71,0,0,1,.713.7.715.715,0,1,1-.713-.7m-4.932,0a.707.707,0,0,1,.707.7.712.712,0,1,1-.707-.7m-5.076,0a.706.706,0,0,1,.706.7.709.709,0,1,1-.706-.7m-5.081,0a.709.709,0,0,1,.714.7.712.712,0,1,1-.714-.7m-4.969,0a.709.709,0,0,1,.711.7.709.709,0,1,1-1.418,0,.707.707,0,0,1,.707-.7"/>
      <rect id="Rectangle_1" data-name="Rectangle 1" class="cls-1" width="25.837" height="0.636" transform="translate(1142.817 220.993)"/>
    </g>
    <path id="Path_41" data-name="Path 41" class="cls-1" d="M1199.87,249.387l-2.732-2.584a.114.114,0,0,0-.067-.025.093.093,0,0,0-.069.03l-2.416,2.58c-.5-.421-3.511-2.829-6.289-3.251.084-.109.195-.246.271-.34.265-.361.38-.53.381-.538a.074.074,0,0,0,.022-.056v-9.967a.073.073,0,0,0-.028-.06,2.663,2.663,0,0,1-.557-1.07,19.38,19.38,0,0,0,5.889-2.194c.385.139,3.176,1.119,6,2.034v10.69a1.773,1.773,0,0,0,1.525,1.46c.618.1.981.152,1.176.18Zm-7-5.385a.1.1,0,0,0,.062.091,13.836,13.836,0,0,1,3.07,1.654.11.11,0,0,0,.108.01.1.1,0,0,0,.05-.092v-9.872a.1.1,0,0,0-.064-.1,29.121,29.121,0,0,1-3.051-1.189.11.11,0,0,0-.113-.032.1.1,0,0,0-.062.1Zm-5.706,2.308a8.977,8.977,0,0,0-3.2,2.99,7.709,7.709,0,0,0-3.055-2.99h.94a.1.1,0,0,0,.1-.1V235.793a.093.093,0,0,0-.043-.081l-1.438-1.059a.1.1,0,0,0-.109-.008l-1.868,1.061a.092.092,0,0,0-.051.087v10.414a.1.1,0,0,0,.1.1h.934a8.884,8.884,0,0,0-3.2,3,8.955,8.955,0,0,0-3.2-3.007l.934.008a.089.089,0,0,0,.073-.032.1.1,0,0,0,.029-.071V235.879a2.134,2.134,0,0,0-1.645-1.919l3.219-1.965a12.907,12.907,0,0,1,2.578,1.866.107.107,0,0,0,.044.033c.076.036.8.245,3.718-1.664l.452-.318a34.176,34.176,0,0,0,4.06,2.2c.027.007.041.042.041.1a3.24,3.24,0,0,1-.449,1.113.085.085,0,0,0-.012.05l.009,10.828a.1.1,0,0,0,.1.1Zm-15.777-.057a11.96,11.96,0,0,0-6.119,3.124c-.431-.477-2.664-2.712-7.33-3.25a2.73,2.73,0,0,1,.263-.388,4.265,4.265,0,0,1,.849-.918.107.107,0,0,0,.056-.088v-9.5a.076.076,0,0,0-.024-.06,2.62,2.62,0,0,1-.557-1.062,12.179,12.179,0,0,0,6.108-2.2,31.033,31.033,0,0,0,6.666,2.171,1.8,1.8,0,0,0-.592,1.066v9.8a2.069,2.069,0,0,0,.68,1.3m-8.455-1.81a.13.13,0,0,0,.025.072c.029.023.636.671,3.512,1.242a.088.088,0,0,0,.079-.018.1.1,0,0,0,.041-.077V235.8a.1.1,0,0,0-.063-.091c-2.2-.907-3.39-1.321-3.534-1.22a.119.119,0,0,0-.06.1Zm-4.953-10.251a2.317,2.317,0,0,1-1.26,1.49c-.935.391-2.224.143-3.833-.742a.064.064,0,0,0-.029-.011,1.171,1.171,0,0,0-.831.106.449.449,0,0,0-.167.37v10.8a.1.1,0,0,0,.1.1h.938a9.007,9.007,0,0,0-3.208,3,8.878,8.878,0,0,0-3.192-3l.934.008a.121.121,0,0,0,.071-.025.133.133,0,0,0,.025-.072V235.879a2.133,2.133,0,0,0-1.646-1.919l3.344-2.044a14.877,14.877,0,0,1,2.542,1.812v.027a.125.125,0,0,0,.049.092c.073.035.095.047,2.647-1.623l.432-.306a8.532,8.532,0,0,0,3.085,2.274m-13.275,12.061a11.986,11.986,0,0,0-6.121,3.124c-.432-.477-2.665-2.712-7.326-3.25a3.025,3.025,0,0,1,.26-.388,4.231,4.231,0,0,1,.852-.918.105.105,0,0,0,.054-.088v-9.5a.09.09,0,0,0-.022-.06,2.649,2.649,0,0,1-.561-1.062,12.161,12.161,0,0,0,6.108-2.2,31.022,31.022,0,0,0,6.668,2.171,1.8,1.8,0,0,0-.593,1.066v9.8a2.041,2.041,0,0,0,.681,1.3m-8.453-1.81a.1.1,0,0,0,.028.072c.019.023.63.671,3.508,1.242a.1.1,0,0,0,.083-.018.109.109,0,0,0,.035-.077V235.8a.1.1,0,0,0-.062-.091c-2.2-.907-3.39-1.321-3.538-1.22a.125.125,0,0,0-.054.1Zm-.69-16c-1.425,1.53-3.831,1.7-4.824,1.7-.352,0-.575-.016-.575-.016a.081.081,0,0,0-.078.024.1.1,0,0,0-.032.07v18.975a.111.111,0,0,0,.047.089.1.1,0,0,0,.1.005c0-.005.648-.289,1.07-.424a.225.225,0,0,1,.1-.021.313.313,0,0,1,.162.561c-.353.281-1.427,1.1-1.442,1.108a.1.1,0,0,0-.038.081v4.56a1.96,1.96,0,1,1-1.915-1.535.426.426,0,0,0,.058,0c.321,0,.354-.161.354-.23v-2.022a.1.1,0,0,0-.046-.087.1.1,0,0,0-.1,0,21,21,0,0,1-8.952,2.041h-.026c-8.516,0-14.239-5.14-14.239-12.793,0-3.741,1.985-7.6,5.441-10.574a18.051,18.051,0,0,1,11.148-4.5v.334a13.391,13.391,0,0,0-4.008,2.267c-4.338,3.733-5.23,6.666-5.23,9.921,0,.56.031,1.168.089,1.851.407,4.721,5.326,7.92,5.375,7.955a.1.1,0,0,0,.124-.015l1.23-1.215a.115.115,0,0,0,.024-.074v-14.82a.131.131,0,0,0,0-.031l-.4-1.044a23.914,23.914,0,0,0,10.5-6.2,7.606,7.606,0,0,0,6.087,4.06m-15.448,20.464a.08.08,0,0,0,.038.077c.045.043,1.173.942,4.93.944a31.038,31.038,0,0,0,3.352-.2.1.1,0,0,0,.089-.1V230.008a.1.1,0,0,0-.047-.089,9.8,9.8,0,0,0-2.722-1.256.33.33,0,0,0-.214.059.247.247,0,0,0-.1.207v15.426l-5.293,4.48a.08.08,0,0,0-.036.072"/>
  </g>
</svg>
