<svg xmlns="http://www.w3.org/2000/svg" viewBox="0 0 244.489 126.227">
  <defs>
    <style>
      .cls-1 {
        fill: #fff;
      }
    </style>
  </defs>
  <g id="Group_169" data-name="Group 169" transform="translate(910.75 -205.727)">
    <g id="Group_168" data-name="Group 168" transform="translate(-992.246 205.727)">
      <g id="Group_154" data-name="Group 154" transform="translate(167.767)">
        <path id="Path_997" data-name="Path 997" class="cls-1" d="M405.85,189.955a1.391,1.391,0,0,0-1.532,0c-1.532,1.225-2.757,1.838-3.983,1.838a2.786,2.786,0,0,0-2.451,1.226l-.919.919c0,.306-.613.306-1.838.613-.306.306-.919.613-.613.919a13.323,13.323,0,0,1,1.225,2.145,5.354,5.354,0,0,1-1.225,4.6,1.894,1.894,0,0,1-2.145.613.978.978,0,0,1-.919-.919c0-.613.306-.919.919-1.225.919-1.226.919-2.145,0-3.064a2.617,2.617,0,0,0-2.145,0c-1.532.613-1.532,1.838-.613,3.064a2,2,0,0,1-2.145,2.145c-1.225-.613-1.838-1.838-1.838-3.983a8.258,8.258,0,0,1,2.145-2.451,6.531,6.531,0,0,0-3.37-3.064,8.151,8.151,0,0,0-3.37,3.064c.613.919,1.225,1.532,1.838,2.451a4.237,4.237,0,0,1-.919,3.677,2.333,2.333,0,0,1-2.757.306,1.815,1.815,0,0,1-.306-2.145,1.968,1.968,0,0,0-.306-2.757c-.613-.613-1.532-.306-2.145,0q-1.379.919,0,2.757V201.9c-.613,1.532-1.838,1.226-3.064.919-2.145-2.145-2.145-4.289.306-6.434a.859.859,0,0,0-.613-1.532,8.883,8.883,0,0,1-4.6-2.757c-.919-2.145-2.451-2.145-3.677,0a7.263,7.263,0,0,1-4.6,2.757c-.919.306-1.225.919-.919,1.532,2.757,2.145,2.757,4.289.613,6.434-1.225.613-2.451.613-3.064-.919-.306-.306-.306-.613,0-1.225.613-.919.919-2.145,0-2.757a2.335,2.335,0,0,0-2.451,0,1.939,1.939,0,0,0-.306,2.757,1.887,1.887,0,0,1-.306,2.145,2.333,2.333,0,0,1-2.757-.306,5.526,5.526,0,0,1-.919-3.677,12.416,12.416,0,0,1,1.532-2.757,6.642,6.642,0,0,0-3.37-3.064,16.059,16.059,0,0,0-3.37,3.064,9.542,9.542,0,0,1,2.145,2.757c.306,2.145-.306,3.37-1.838,3.983a1.285,1.285,0,0,1-1.838-.919c0-.306-.306-.919-.306-1.225a1.879,1.879,0,0,0-.613-3.064,2.617,2.617,0,0,0-2.145,0c-.919.919-.919,1.838,0,3.064a1.642,1.642,0,0,1,.919,1.225.812.812,0,0,1-.919.919,4.429,4.429,0,0,1-2.145-.613,4.781,4.781,0,0,1-1.532-4.6c.306-.613.919-1.225,1.225-1.838.306-.306-.306-.919-.919-.919-1.532-.306-1.838-.306-1.838-.613l-1.225-.919a3.479,3.479,0,0,0-2.451-.919c-.919,0-2.451-.919-3.983-1.838a.932.932,0,0,0-1.226,0c-.306.306-.613.919-.306,1.226a24.593,24.593,0,0,1,7.966,13.481H398.5c.306-3.064,2.451-8.579,7.659-13.481.306-1.225,0-1.532-.306-1.838" transform="translate(-325.758 -169.734)"/>
        <path id="Path_998" data-name="Path 998" class="cls-1" d="M329.051,202.5a13.537,13.537,0,0,1,4.9,1.838,3.125,3.125,0,0,0,2.757-.613,47.556,47.556,0,0,1,13.481-7.353q1.379-.46.919.919a10.8,10.8,0,0,0-4.289,6.128c0,.919.613,1.225,1.532.919a1.815,1.815,0,0,1,2.145.306c.919.306,1.532,0,1.838-1.225.613-3.37,2.757-5.821,5.821-7.659q2.3-.46,1.838,1.838a7.9,7.9,0,0,0-2.451,3.983,1.408,1.408,0,0,0,1.838,1.532q.919,0,1.838-1.838a2.911,2.911,0,0,1,5.208,0c.306,1.225.919,1.838,1.532,1.838,1.225.306,1.838,0,2.145-1.532a7.9,7.9,0,0,0-2.451-3.983q-.46-1.838,1.838-1.838a10.1,10.1,0,0,1,5.821,7.659c.306,1.225,1.226,1.532,1.838,1.225a4.543,4.543,0,0,1,2.145-.306c1.225,0,1.532-.306,1.532-.919a11.713,11.713,0,0,0-4.6-6.128c-.306-.919.306-.919.919-.919a38.171,38.171,0,0,1,13.481,7.353,3.125,3.125,0,0,0,2.757.613,13.536,13.536,0,0,1,4.9-1.838c1.225-.306,1.532-.919,1.225-2.145a5.025,5.025,0,0,0-3.677-2.145c-.613,0-1.225,0-1.532-.613-.919-1.532-2.757-2.145-5.208-1.838a6.016,6.016,0,0,0-4.6-1.532,5.1,5.1,0,0,0-4.9-1.532c-1.838-1.225-3.677-1.838-5.208-.919a6.748,6.748,0,0,0-6.434.613,4.606,4.606,0,0,0-3.064-2.757V188.1h2.451v-2.451H364.9V183.2h-3.983v2.451H358.77V187.8h2.145v1.532a5.48,5.48,0,0,0-3.064,2.757,6.748,6.748,0,0,0-6.434-.613c-1.532-.919-3.37-.306-5.208.919-1.838-.306-3.37-.306-4.9,1.532-1.838,0-3.37.306-4.289,1.532-2.451-.306-4.289.306-5.208,1.838a2.34,2.34,0,0,1-1.532.613,5.683,5.683,0,0,0-3.677,2.145c1.226,1.532,1.532,2.145,2.451,2.451m35.233-11.642c1.226,0,2.145,1.225,2.145,2.757s-.919,3.064-2.145,3.064a2.8,2.8,0,0,1-2.451-3.064,2.7,2.7,0,0,1,2.451-2.757" transform="translate(-324.022 -183.2)"/>
        <path id="Path_999" data-name="Path 999" class="cls-1" d="M328.3,202.128h64.645V196H328.3Zm57.6-4.9a1.838,1.838,0,1,1-1.838,1.838,1.977,1.977,0,0,1,1.838-1.838m-12.562,0a1.838,1.838,0,1,1-1.838,1.838c.306-.919.919-1.838,1.838-1.838m-12.562,0a1.838,1.838,0,1,1-1.838,1.838,1.977,1.977,0,0,1,1.838-1.838m-12.561,0a1.838,1.838,0,1,1-1.838,1.838,1.766,1.766,0,0,1,1.838-1.838m-12.561,0a1.838,1.838,0,1,1-1.838,1.838,1.977,1.977,0,0,1,1.838-1.838" transform="translate(-320.514 -156.784)"/>
        <rect id="Rectangle_67" data-name="Rectangle 67" class="cls-1" width="64.646" height="1.532" transform="translate(7.786 36.152)"/>
      </g>
      <path id="Path_1000" data-name="Path 1000" class="cls-1" d="M534.736,260.3,528,253.867h-.613l-6.128,6.434c-1.225-.919-8.885-7.047-15.625-8.272.306-.306.613-.613.613-.919a9.069,9.069,0,0,1,.919-1.226h0V225.068h0a22.227,22.227,0,0,1-1.532-2.757,46.9,46.9,0,0,0,14.706-5.515c.919.306,7.966,2.757,15.012,5.208v26.655a4.446,4.446,0,0,0,3.677,3.677,14.068,14.068,0,0,0,3.064.306Zm-17.77-13.481c0,.306.306.306,0,0,.306.306,4.6,1.838,7.966,4.289h.306V225.987a.3.3,0,0,0-.306-.306,73.12,73.12,0,0,1-7.659-3.064h-.306a.3.3,0,0,0-.306.306v23.9Zm-14.093,5.821a22.939,22.939,0,0,0-7.966,7.353c-.613-1.225-2.451-4.289-7.659-7.353H489.7a.3.3,0,0,0,.306-.306V225.987l-3.677-2.757h-.306l-4.6,2.757v26.348a.3.3,0,0,0,.306.306h2.451c-5.208,3.064-7.353,6.434-7.966,7.659-.613-1.225-2.757-4.289-7.966-7.659h2.757V226.6a5.341,5.341,0,0,0-3.983-4.9l7.966-4.9c.919.613,5.515,3.37,6.434,4.6h0c.306,0,2.145.613,9.191-4.289l1.225-.919a88.688,88.688,0,0,0,10.11,5.515V222a10.881,10.881,0,0,1-1.225,2.757h0v26.961a.3.3,0,0,0,.306.306h1.838Zm-39.523,0c-2.451.613-10.11,2.451-15.319,7.966-1.225-1.225-6.74-6.74-18.383-8.272,0-.306.306-.613.613-.919a9.32,9.32,0,0,1,2.145-2.145v-24.2h0a22.227,22.227,0,0,1-1.532-2.757c1.532,0,9.8-.919,15.319-5.515,1.225.613,10.417,4.6,16.544,5.515a4.125,4.125,0,0,0-1.532,2.757v24.51c.306.306.919,2.145,2.145,3.064m-21.14-4.6h0c0,.306,1.532,1.838,8.885,3.37h.306V226.293a.3.3,0,0,0-.306-.306c-5.515-2.145-8.578-3.37-8.885-3.064v25.123ZM429.648,222.31a5.749,5.749,0,0,1-3.064,3.677c-2.451.919-5.515.306-9.5-1.838h0s-1.532-.306-2.145.306a1.125,1.125,0,0,0-.306.919v26.961a.3.3,0,0,0,.306.306h2.451c-5.208,3.064-7.353,6.434-7.966,7.659-.613-1.226-2.757-4.289-7.966-7.659h2.757V226.6a5.341,5.341,0,0,0-3.983-4.9l8.272-5.208c.919.613,5.515,3.37,6.434,4.6h0v.306c.306,0,.306,0,6.74-3.983l1.225-.613c0,.919,3.677,4.6,6.74,5.515M396.56,252.641c-2.451.613-10.11,2.451-15.319,7.966-1.225-1.225-6.74-6.74-18.383-8.272,0-.306.306-.613.613-.919a9.321,9.321,0,0,1,2.145-2.145v-24.2h0a22.227,22.227,0,0,1-1.532-2.757c1.532,0,9.8-.919,15.319-5.515,1.226.613,10.417,4.6,16.544,5.515a4.125,4.125,0,0,0-1.532,2.757v24.51c.306.306.919,2.145,2.145,3.064m-21.14-4.6h0c0,.306,1.532,1.838,8.885,3.37h.306V226.293a.3.3,0,0,0-.306-.306c-5.515-2.145-8.578-3.37-8.885-3.064v25.123Zm-1.838-40.135c-3.677,3.983-9.5,4.289-11.949,4.289h-1.838v48.1h.306a26.023,26.023,0,0,1,2.757-.919h.306c.306,0,.613.306.613.919,0,.306,0,.306-.306.613-.919.613-3.677,2.757-3.677,2.757v11.642c0,2.145-2.145,3.983-4.9,3.983s-4.9-1.838-4.9-3.983,2.145-3.983,4.9-3.983h0c.919,0,.919-.306.919-.613V265.2h-.306c-9.191,4.9-21.14,5.208-22.365,5.208h0c-21.446,0-35.54-12.868-35.54-32.17,0-9.5,4.9-19,13.481-26.348,8.272-7.047,18.689-11.336,27.88-11.336v.919c-6.128,2.145-10.11,5.515-10.11,5.821-10.723,9.191-13.174,16.544-13.174,24.817a23.187,23.187,0,0,0,.306,4.6c.919,11.949,13.481,19.914,13.481,19.914h.306l3.064-3.064V216.183h0l-.919-2.757c14.706-3.677,24.51-13.787,26.348-15.625,4.289,8.579,13.174,9.8,15.319,10.111m-38.6,51.165h0c.306.306,3.064,2.451,12.561,2.451a81.067,81.067,0,0,0,8.272-.613.3.3,0,0,0,.306-.306V211.281c-.306,0-5.208-3.064-6.74-3.064h-.613a1.07,1.07,0,0,0-.306.613v38.6l-13.481,11.642h0" transform="translate(-216.104 -153.069)"/>
    </g>
  </g>
</svg>
