<svg xmlns="http://www.w3.org/2000/svg" viewBox="0 0 405.336 197.307">
  <defs>
    <style>
      .cls-1 {
        fill: #fff;
      }
    </style>
  </defs>
  <path id="Path_1001" data-name="Path 1001" class="cls-1" d="M645.392,257.4c0-1.225-.919-.919-1.532-1.532C644.167,256.787,644.473,257.4,645.392,257.4Zm1.225,0v.613h.919C647.231,257.706,646.924,257.4,646.618,257.4Zm27.88,77.82h-4.6c1.838,1.838-1.225,3.064-.613,0h-1.225l-7.353.306h-4.6c0,.306-.306.306-.306,0l-7.047-.306h-4.6c.306,0,.306.306.613.306-1.838,0-1.838,1.225-1.838-.306h-3.064c0,.613-.306.919-.613,0h-4.6c0,.919-.919,1.225-.613,0h-6.434c.306.613-.306,1.532-1.532,3.064,0-1.226-.306-1.532-.613-1.532l.306,53.616v13.787l-.613,11.336v8.885l.613.306,3.37-.306h1.838l37.684.306h4.289l2.145-.306V407.524h-3.677l-22.672.306H644.78V389.141H669.6V376.887l.306-2.757V372.6h-.613l-2.451.306-9.5-.613H645.086V352.683h12.562l8.885-.306h8.578V336.445C674.8,335.832,674.192,335.526,674.5,335.219Zm-41.974,7.966c3.064,2.757-.919,4.6,0,0Zm7.659-7.659c.306.306,1.225.306.613,1.225C640.184,336.445,638.958,335.526,640.184,335.526Zm-4.6,2.451c.919-3.677,3.983,0,0,0Zm0,1.532c1.225,1.226,0,1.838,0,0Zm0,3.064c5.515,0,0,4.289,0,0Zm2.757,1.838c.919,1.532,0,2.145,0,0Zm.613-7.659c1.226,1.226,1.226,1.532,0,3.37Zm.613,6.434H640.8C640.184,344.41,640.49,344.1,639.571,343.185Zm1.226-4.6c4.9,0-2.451,6.434,0,0Zm1.225,4.6c2.145,1.838,0,5.208,0,0Zm1.532-7.047c.919,1.532,0,2.145,0,0Zm3.064,5.821h1.226C647.231,342.879,647.843,342.879,646.618,341.959Zm16.851-6.434c2.145.613.919-.306,1.838,1.225C664.694,337.057,664.081,336.445,663.469,335.526Zm-19.3-70.773c-.306,1.225,1.532.306.919-.306C644.78,264.14,644.167,264.752,644.167,264.752Zm-4.9.613c0,.306-.306.306-.306.613.306,0,.919,0,.919-.613Zm5.208,28.187v.613h.919C645.392,293.552,645.086,293.552,644.473,293.552Zm-2.451-8.272c-.306-.306-.919.306-.919.306C640.8,286.505,642.635,285.586,642.022,285.28ZM640.184,300.9c-.613,0-.613.306-.613.613h.613Zm0-13.787h-.919c0,.613.306.919.919,1.225Zm-1.532,2.451c-.306.919.919.306.919,1.226.919,0,.919-.613,1.838-.919-.306-.919,0-1.838,1.225-1.532,0-1.225-.919-2.757-2.145-2.145,1.225.919-.613,3.677-1.225,3.677C639.265,290.182,639.265,289.263,638.652,289.569Zm2.757,10.417c-.306-.306-1.532-.306-1.532.306C640.184,299.986,641.409,300.6,641.409,299.986Zm2.451-7.659c0-.919-.613-.919-1.532-.919C642.022,292.633,643.248,292.326,643.861,292.326Zm-18.076,42.893h-.306v.613C625.478,335.526,625.478,335.219,625.784,335.219ZM560.22,319.594h1.838l37.684.306h3.064a11.867,11.867,0,0,1-.919-3.37c1.838,0,2.145,2.451,1.838,3.37h.306l2.145-.306v-3.677a10.832,10.832,0,0,1-.306-1.838l.306.306v-7.047c0-.306-.306-.613-.306-1.225l.306.306v-3.677h-5.515c.306.919-.306,1.225-.919,0l-19.914.306h-3.983V284.361h24.817V272.105l.306-2.757v-1.532h-.613l-2.451.306-9.5-.613H576.151V247.9h12.562l8.885-.306h8.578V230.745h-7.353l-7.353.306-11.949-.306H556.237l.306,54.841v13.787l-.613,11.336v8.885l.613.306Zm43.505-16.544c1.225,1.532,0,2.145,0,0Zm-1.838,8.272c1.225,1.532,0,2.145,0,0Zm-31.25-.613c1.226,1.532,0,2.145,0,0Zm.919,2.145c.919,1.225,0,2.145,0,0Zm28.493,4.289c-.919.919-.306.919-1.226,0Zm-2.145-4.9c2.145,0,1.532.919,0,0Zm0-7.353c.306.306,1.225.306.613,1.225C597.9,305.807,596.678,305.194,597.9,304.888Zm-5.208,3.37c1.225,1.532,0,3.677,0,0Zm-5.208-3.37c1.226,1.532,0,3.677,0,0Zm-1.225-.613c2.145,0,1.532,1.225,0,0Zm0,2.757c2.145,1.532.306,5.821,0,0Zm-5.208,3.677c2.145,2.451,0,11.336,0,0Zm-1.838-.613c1.838,2.757-.919,4.289,0,0Zm-2.757,2.145c1.225,1.225,0,2.145,0,0Zm-.613-3.37c1.225,1.532,0,3.677,0,0Zm-4.289-1.838c10.11,0,0,.306,0,0Zm-.919-6.74c3.37,5.208-1.225,6.434,0,0Zm-.613,14.4c1.225,1.532,0,2.145,0,0Zm-2.451-6.434c2.451,1.838,0,3.37,0,0Zm-.613-8.579c.919,1.532,0,2.145,0,0Zm-.613-7.047c1.226,2.145-1.225,3.677,0,0Zm-3.983,9.191c1.225,1.226,0,2.145,0,0Zm-2.757-6.74c1.226,1.838,0,3.677,0,0Zm-1.838-4.289c3.677,1.226,1.532,1.532,0,0Zm-.613,21.446c2.145,0,1.532.919,0,0Zm85.479-22.672a1.842,1.842,0,0,0-1.225.306c.613.613-.919.919-.613,2.145h1.225C642.022,290.795,642.635,290.488,642.635,289.569ZM642.022,296c0,.613-.306.613-.306,1.225C642.635,297.535,642.635,295.7,642.022,296ZM273.145,229.826c.306,0,.613-.306.919-.306,0-.306,0-.306-.306-.613h-1.225c0,.306.306.613.613.919Zm19.608-.613ZM305.62,424.375h0Zm-3.676-.919-.306.306v.306h1.532a.3.3,0,0,0-.306-.306C302.557,423.456,302.863,423.762,301.944,423.456Zm4.6.919h0Zm-32.476-9.191v.919h.306c0-.613,0-.919-.306-.919Zm10.11,8.578h0l.919.306v-.306ZM271,230.745v.613h.306C271.306,230.745,271.306,231.051,271,230.745ZM631.605,319.9l-.613-.613h1.226c0,.306,0,.306-.613.613h5.208a.949.949,0,0,0-.306-.613c1.838,0,1.225,0,.919.613h.613v-8.272h0l.306-9.191V288.956c0-.306.306-.306.613-.306.306-.613-.306-.613-.613-.919v-.306c.919,0,1.838-.613.919-1.226a1.126,1.126,0,0,1-.919.306v-1.838h0l.306.306.919-.306c0,.306-.306.306-.613,1.225.613,0,1.532,0,1.838-.306-.306-.919-.919-.919.613-.919h2.145v.306a.3.3,0,0,1-.306-.306c-.613.306.306.919.613.306l.613,1.532s-.306,0,0,.306h.306l2.451,7.353c1.226.306,1.226,0,1.838.613a6.175,6.175,0,0,1-1.838-.613l1.532,4.9,2.145,6.434,2.145,6.74,2.145,7.047,2.757.306,5.208-.306h4.289a.949.949,0,0,0-.306-.613c1.838,0,1.225,0,.919.613h7.047l-13.787-40.442c8.885-2.757,15.012-11.642,15.012-21.753a26.529,26.529,0,0,0-4.9-15.932,19.849,19.849,0,0,0-5.208-4.9,18.819,18.819,0,0,0-7.966-4.6,35.515,35.515,0,0,0-10.417-1.532h-28.8V270.88l-.306,21.446v7.353c2.451,1.532,1.225,3.064,0,.613v2.451c1.532,0,1.225.919,0,.306v15.932h8.885Zm29.412-25.429c.613,1.226,1.226.613,0,1.226Zm-14.4-3.064c8.579-.306,0,6.434,0,0Zm5.208,3.064c1.226,1.532,0,2.145,0,0ZM655.2,296c1.532,2.145-1.226,6.434,0,0Zm-1.226-4.6c1.532,1.225,1.532,0,1.838,2.451C653.358,292.939,653.664,293.246,653.971,291.407ZM638.652,247.9h9.8a5.214,5.214,0,0,1,2.145.306,7.022,7.022,0,0,1,4.6,3.677c.306.613.613,1.532.919,2.145a4.554,4.554,0,0,0,.306,1.838v2.145a2.316,2.316,0,0,0,.306,1.226,10.978,10.978,0,0,1-1.225,3.37,8.162,8.162,0,0,1-7.966,5.208l-2.451.306-1.532.306-2.145-.613h-2.757Zm-9.5,71.386c2.145,0,1.532,1.225,0,0Zm7.047-22.059c1.225,1.532,0,2.145,0,0Zm-5.208,21.446c1.226-.919,1.532-2.145.613-3.983C635.282,314.692,633.444,317.756,630.993,318.675Zm0-4.6a6.6,6.6,0,0,1,.613-3.37C634.056,310.4,633.75,311.628,630.993,314.079Zm1.532-7.966c.919,1.532,0,2.145,0,0Zm-.613,1.532c.613,1.225.613,1.532,0,2.451ZM630.993,296c-.613-.613-.306-.306-.613-1.226C632.831,294.471,630.993,294.471,630.993,296ZM630.38,310.1c2.145,0,1.532,1.226,0,0Zm-1.838-1.838c2.145,0,1.532,1.225,0,0Zm-6.434,0v-2.451C622.721,306.726,622.721,307.033,622.108,308.258Zm.613-8.579c2.145,0,1.532,1.225,0,0ZM274.064,420.392h0v0Zm0,.613v.919h.306l-.306.306v1.838l.613.306h.306c-.306-.919,0-2.145-.306-3.064A1.07,1.07,0,0,0,274.064,421Zm162.686-87.93h-.919a5.771,5.771,0,0,0-2.451.613c-2.145-.613-3.983,0-5.821.306a24.182,24.182,0,0,0-15.319,11.642,24.767,24.767,0,0,0-3.37,8.272,47.565,47.565,0,0,0-.919,9.5l.613.306-.613,2.757v28.8c0,16.238,8.272,30.331,29.106,30.331s29.106-14.093,29.106-30.331v-3.064h-.613l-.919.306-2.145-.306-7.353.306-3.983-.306h-3.983v.919l.306,1.226-.306,1.225v7.047a22.6,22.6,0,0,1-2.451,3.983,9.18,9.18,0,0,1-7.353,3.064c-6.128,0-9.5-3.677-9.5-11.642l-.306-22.059v-5.515l.306-4.9v-4.289a11.427,11.427,0,0,1,.613-3.677c.919-4.9,4.289-7.353,9.191-7.353h.306a9.445,9.445,0,0,1,3.064.306c3.983,1.225,6.128,4.9,6.128,11.03v5.821h1.226l10.723.306h3.064l2.757-.306h1.838l-.306-.306.306-1.532v-1.838C465.856,347.168,457.583,333.075,436.75,333.075Zm5.515,9.8h0c-.613-.613-.613-.613-.613-1.226.306,0,.306.306.613.306Zm84.254-30.638c0,.613,0,1.532.613,1.838C527.437,313.16,527.131,312.241,526.518,312.241Zm-.919-4.289c0,.613.306.919.919.613C526.518,307.952,526.212,307.952,525.6,307.952Zm.919,9.8h.613a.659.659,0,0,0-.613-.613Zm.613-3.064h0c.306-.613.306-.919-.306-.613C526.825,314.386,526.825,314.692,527.131,314.692Zm9.8,86.7v-.306l-.306-.613h-.306v-.613h.306l-1.225-4.6c-.306.306-.613,0-.613-.306l.306-.306-6.74-26.348-3.37-13.481-2.451-12.255-2.145-8.885H497.106l-11.03,45.956-3.983,15.012-3.677,15.319-2.145,8.578-1.226,4.289h20.221l.306-1.838.306-4.289,2.451-9.8h20.527l3.37,15.625h10.723a.424.424,0,0,1,0-.613c.613,0,1.225,0,1.532.613h7.966l-5.515-21.14Zm-42.28-56.68h0l.306.306h-.306Zm.919,37.072h-.306v-.306l.306.306Zm11.642,7.966h-5.208l1.532-7.047,2.145-9.8,1.838-8.578,1.532-6.434v.306l.306.613v.613l.919,4.289,2.145,8.885,3.677,17.157Zm15.012,28.8h-.613v-.613h.613Zm14.706-12.562c0,.613-.919.613-1.225.306C535.71,405.992,536.322,405.992,536.935,405.992Zm-1.838,3.064v-.919c.613,0,.613.306,1.226.306C536.322,408.75,535.71,409.056,535.1,409.056Zm.613,2.145c0,.306-.306.306-.306.613-.306,0-.306-.306-.613-.306,0-.306.306-.306.306-.613C535.4,410.894,535.4,411.2,535.71,411.2Zm.306-3.677v-.613h.613v.613Zm.613-3.37a.812.812,0,0,1-.919-.919A.812.812,0,0,1,536.629,404.154Zm-.919-5.821c-.306.306-1.532.613-1.838.306C533.871,398.026,535.1,398.333,535.71,398.333Zm-1.838,6.74c.613,0,.919,0,.919.613h-.919Zm-1.225,3.37c.306.613-2.145.919-1.838,0C531.42,407.83,532.339,407.83,532.646,408.443Zm-1.225-.919h-1.225A.664.664,0,1,1,531.42,407.524Zm-.613,3.983a1.122,1.122,0,0,1-1.225,1.225c0-.306-.306-.613-.306-.919A2.3,2.3,0,0,1,530.807,411.507Zm-.919-16.238h.613c0,.613-.306.613-.919.613C529.582,395.575,529.888,395.575,529.888,395.269Zm-1.225,13.174h.613v1.226h-.613Zm.306,3.37c0,.613-.613.613-1.226.613C528.05,411.2,528.357,411.507,528.969,411.813Zm-1.226.919h.613v.613h-.613Zm-1.838,4.6c-.919-.306-.306-.919-.306-1.532C526.825,415.8,525.905,416.715,525.905,417.328Zm.306-1.838c0-.613.306-.613.306-.919h.613c0,.613-.306.613-.306.919Zm0-2.757h.919v1.225C526.212,413.958,526.212,413.345,526.212,412.733Zm.613-2.451c0-.613.306-.613.306-.919h.613v.919Zm.306-1.532c-.306.613-.306,1.226-1.532.919C525.6,408.75,526.518,408.137,527.131,408.75Zm-2.145,5.821v-.919C525.905,413.345,525.905,415.184,524.986,414.571Zm-.306-21.14h.613v.613h-.613Zm-2.145,24.817v-.613c.613,0,.613.306.613.919C522.842,418.247,522.842,418.247,522.535,418.247Zm1.225-7.966c.613,0,.919,0,.919.613h-.919Zm1.532,11.949h-.613v-.613h.613Zm1.532-3.983c0,.919-.613.919-1.532,1.225C525.293,418.554,525.905,417.941,526.825,418.247Zm-.613,3.677H525.6v-.613h.613Zm1.226.306c-1.225.306-.306-1.226-.613-2.145-.613,0-.613.306-.613.613-1.225-.306,0-.919.306-1.532.306.306.306,1.225,1.226,1.225C527.131,421,526.825,421.617,527.437,422.23Zm-.306-3.983c-.306-.919.613-.613.919-.919-.306-.306-.919,0-1.226,0s0-.306,0-.919c.919,0,2.451.306,3.37-.306.919.613-.306,1.225-1.225,1.225,0,.613,1.225.306.919,1.226-.613,0-.613.306-.919.613A1.835,1.835,0,0,0,527.131,418.247Zm3.677-.919v1.226c-.306-.306-.919-.306-.919-1.226Zm-1.532,2.145c.306-.306.613.613.613.613.613,0,2.451-2.757,1.225-3.677,1.225-.613,2.145.613,2.145,2.145-.919-.613-1.532.613-1.225,1.532-.613,0-.919.919-1.838.919C530.195,420.086,528.969,420.392,529.276,419.473Zm2.757-3.983s.613-.613.919-.306C533.258,415.8,531.42,416.715,532.033,415.49Zm.613,6.434H531.42c-.306-.919,1.225-1.532.613-2.145,0-.306.613-.306,1.225-.306C533.258,420.392,532.646,420.7,532.646,421.924Zm.613-7.353h-.613v-.613h.613Zm.613,0c.306,0,.306.306.613.306C534.484,415.8,533.258,415.184,533.871,414.571Zm-1.225-2.451c-.306,0-.306.919-1.225.613-.306,1.225.919.919.613,2.145-1.532,0-.919,0-.613.919-.306.306-.919.306-1.838.306.306-1.838.919-.919,0-2.451.306-.306.613-.306,1.225-.306,0-.613-.306-.919.306-1.532,0-.613-.919-.919-.919-1.838.613,0,.613-.306,1.225-.306-.919.919.613.919.306,2.145.613-1.838,1.225,0,2.451,0C534.484,413.039,533.258,412.426,532.646,412.12Zm.306-3.064c1.225-.306.613.919,2.145.613C534.79,411.507,533.258,409.669,532.952,409.056Zm2.757,8.272H535.1c0-.306,0-.306-.306-.306C534.79,416.409,536.016,416.715,535.71,417.328Zm.306-5.515s.613-.613.919-.306S535.1,412.733,536.016,411.813ZM395.083,231.051H380.07V319.9l16.544.613h1.838l.919-.613V231.051h-4.289ZM381.3,233.2h0a1.07,1.07,0,0,1-.613-.306v-.306h.919C381.6,232.889,381.6,232.889,381.3,233.2Zm3.37,9.191h-.306v-.306l.306.306Zm1.225-10.11Zm1.226,5.821H386.5v-1.225c.306,0,.306.306.613.306Zm6.128,17.157h0l-.306-.306h.306Zm.613-21.753c0-.306-.306-.306-.306-.613h.306Zm4.289,3.677c.613.306.613,0,.613.613a.659.659,0,0,1-.613-.613Zm0,2.451h0c-.613-.306-.613-.306-.613-.613h.613ZM525.6,303.662v.613h.613C526.212,303.662,525.905,303.662,525.6,303.662Zm-62.5-72.918h-7.659l.306,23.591v10.11l-.613,11.03v11.03L443.8,252.8h0v.306c0,.306-.306.306-.306.613h-.613V252.5a1.07,1.07,0,0,1,.613.306l-2.757-7.966-1.838-6.434h0l-.306-1.532-1.225-3.677a.3.3,0,0,1-.306.306h-.306c0-.306-.306-.613-.306-.919l.613.613-.306-.613h0v-.613l-20.834.306h-2.145l-1.226-.306v88.849h19V263.527l18.076,57.292h24.2V231.97l-6.128.306Zm-45.344,3.983h-.919c0-.613,0-.306.306-.613.306,0,.306-.306.613-.306h0Q417.754,234.268,417.754,234.728Zm7.966,12.561h0v-.613C426.027,246.983,426.027,246.983,425.72,247.289Zm3.983,10.723v-.306h.306ZM433.38,243Zm2.145-6.74h-.613a1.069,1.069,0,0,1,.306-.613h.306Zm.613-1.226h-.306v-.306l.306.306Zm.613,0v-.306c.306,0,.306-.306.613-.306h1.225v.306c0,.306-.306.306-.306.613A13.256,13.256,0,0,1,436.75,235.034Zm1.532,11.336h0v-.613s.306,0,0,.613Zm1.838-1.532h-.613c.306-.613.306-.919.613-1.532h.306A13.291,13.291,0,0,1,440.12,244.838Zm1.532,1.838v0Zm8.885,72h-.919c0-.306.306-.306.306-.613.613,0,.613,0,.919.306A.3.3,0,0,1,450.537,318.675Zm13.174-71.692c.613.306.306,0,.613.613C463.4,247.6,463.711,247.6,463.711,246.983Zm-.306-3.37h0v-.919h.306c.306,0,.306.306.613.306C463.711,243.306,464.017,243.613,463.4,243.613Zm1.226-7.659c.306-.306.306-.613.613-.919.306,0,.306.306.613.306,0,.306-.306.919-.306,1.225h-.613v-.613Zm1.532,8.272a1.07,1.07,0,0,0-.613.306h-.306a1.069,1.069,0,0,1,.306-.613h.306c.306-.306.306-.306.306.306Zm.613-8.579c0-.306-.306-.306-.306-.613h.613v.613Zm6.434,0c0-.306.306-.306.306-.613h.613c0,.306-.306.613-.306.919h-.613Zm-3.983.919h.613v.613h-.613C468.919,237.179,469.226,236.872,469.226,236.566Zm56.68,69.854c0,.613-.613.306-.613,1.226C526.212,307.339,526.825,306.42,525.905,306.42Zm-.613-16.544c0,.613.306.919.919.613,0-.306,0-.613.306-.613C525.905,289.569,525.905,289.875,525.293,289.875Zm1.225,10.723v-.613a.3.3,0,0,1-.306-.306H525.6a.3.3,0,0,1-.306.306v.613a.3.3,0,0,1,.306.306l.919-.306Zm-.919-2.145c0-.306,1.225-1.532,0-1.838C525.6,297.228,525.293,298.454,525.6,298.454Zm0-3.37c-.306,1.532.919.306,0,0Zm0,15.012h.613c0-.306.306-.306.306-.613-.306,0-.306-.306-.613-.306v.919ZM294.591,363.712c0,.613.306.919.919.613,0-.306,0-.613.306-.613C295.2,363.1,295.2,363.712,294.591,363.712Zm.613-2.451c-.306,0-.306-.613-.613-.613C294.285,361.261,295.2,361.874,295.2,361.261Zm0-1.838c-.306-.306-.613,0-.613.306C293.978,360.648,295.817,360.036,295.2,359.423Zm-.613,3.677a.812.812,0,0,0,.919-.919h-.919Zm-8.579,55.761h-.306v.613h.306Zm9.8-27.88v.613h.613A.659.659,0,0,0,295.817,390.98ZM309.3,335.526l-11.949-.306H274.064l.306,54.841v1.532l.306.306c0,.306,0,0-.306.306v5.208a3.938,3.938,0,0,0,2.145.306c0,1.226.306,1.226.613,2.145h-2.145v-.613c.306-.306,0,0,.306-.613h-1.225v2.145h0s.613.306.306.613a.3.3,0,0,1-.306-.306v1.532c.306,0,0,0,.306-.306.919.306,1.225,0,1.838.306-1.225.613-.306.919-1.532.919l-.613-.613v1.838l.306.306h-.306v3.37a.949.949,0,0,0,.306.613h-.306l-.306,3.677c.306.306.306.613.306,1.532.613,0,.613,0,.919.306-.306.919-.613.306.306.919l.613-.613v.613l.306.306a4.224,4.224,0,0,1-2.757,0v.306h-.306v1.532l.306.306a.3.3,0,0,0-.306.306h0c.613-.306.613-.306.919-.919h.613v1.532a2.184,2.184,0,0,0-.919,1.838c1.838,1.225,1.226,2.145,1.532,3.677l1.838-.306a3.886,3.886,0,0,0-.306-1.838h.613v.306a5.176,5.176,0,0,1,.613,1.532h3.983a8.123,8.123,0,0,0-1.838-1.532,3.285,3.285,0,0,0,.613-1.838h.613v.919l-.613.613h.919c.306-.306,0,0,.613-.306,0-.306.306-.613.306-.919a2.6,2.6,0,0,1-.919-1.532c.613-.613.613-.306.306-.919-.306-.919-.613-.919-.919-1.532h1.838a4.326,4.326,0,0,0,.306,2.757h.613a3.317,3.317,0,0,1,.306-1.838h.919v.919c.613.306,2.757.919,3.064,1.838,0,.306.306,0,0,.306l-2.145,2.145v-.306c-.919-1.225.306-1.838-1.532-2.451-.613.919-.919.919-.919,2.145,0,.306-.306,0,0,.306s.613.613.613.919h7.966a5.981,5.981,0,0,1,.306-2.145c-.613,0-.613,0-.919-.306,1.226-.919,0-.919.919-1.838,0,2.145.919,3.064,1.532,4.289h1.838c0-.306.306-.613.613-.919l.919.919h.919a4.554,4.554,0,0,0-.306-1.838h.306c1.226,1.226,2.145.613,3.983.919v.613h.613c-.306-.306-.306-.613-.306-1.226.919-.306,1.226-.613,2.145-.919-.613-.919-.919-1.225-1.838-2.451l-.919.306v.306a1.443,1.443,0,0,1,.306,1.838c-.306.306,0,0-.613.306-.613-1.532-.919-.919-2.451-.613v-.613c1.532-.919,2.757-2.451,4.289-3.064v.306c.919,1.225,1.532,3.064,2.451,4.6a3.317,3.317,0,0,0-1.838.306v.613h.919c.306-.306.613-.306,1.532-.306.306.306.306.613.613.919H309.3v-1.225c-.306-.613-.306-.306,0-.919.613,0,.613,0,.919.306a3.285,3.285,0,0,0-.613,1.838h8.272c0-.306.306-.613.613-1.226.919.613.306,0,.613.613v.613h.613l2.145-.306V419.78l-.306-.306h.306V406.3h-3.677l-22.672.306h-3.677c0,.306-.306.306-.306.613h-.306v-.613c.306-.306.306-.306.306-.613v-17.77h24.817V375.968l.306-2.757v-1.532h-.613l-2.451.306-9.5-.613H293.672c.306-.613.613-1.226-.306-1.226a3.169,3.169,0,0,0-.306,1.226h-1.226v-.613c.306,0,.306-.306.613-.306v-.613c-.306,0-.306-.306-.613-.306a.3.3,0,0,1-.306.306v-.613h.306v-.613h-.306v-4.289a1.126,1.126,0,0,0,.306-.919c-1.225,0,.919-.919-.306-1.225v-2.145h.306c.306-.306.306-1.226-.306-1.226v-.919c.306,0,.613-.306.306-.613h-.306v-.613h.306c0-.306.919-2.757-.306-3.064v-.613c.306.306.306.919.613.306-.306,0-.613-.613-.613-.613v-.919h1.226c-.613.306-.613,1.225.306,1.532,0-.613-.613-.919,0-1.532h11.03l8.885-.306h8.578V334.607H314.2Zm6.128,87.011c-.306.306,0,0-.613.306v-.306a1.928,1.928,0,0,0,0-1.838h.613C315.425,421.617,315.731,421.924,315.425,422.537Zm4.289,0h-.306a3.317,3.317,0,0,1-1.838.306c0-.613,0-.613.306-.919,0,0,.306,1.532.306.613v-.306c.613-.306.306-.613.613,0C319.1,421.924,320.327,422.23,319.714,422.537Zm3.677.306a3.383,3.383,0,0,1-1.532,1.532v-.306l-.306-.306a2.865,2.865,0,0,0,1.532-2.145C323.39,421.924,323.7,421.924,323.39,422.843Zm-2.145-7.047h.613v.306C321.246,415.8,321.552,415.8,321.246,415.8Zm1.838-1.532v-.919c.306.306.306.306.306.919Zm-.613-6.74c.306.613.613.306,0,.613Zm-.919,7.659c-.919-.919-1.532-.613-1.838-2.145a2.544,2.544,0,0,0,2.451-.613C322.778,413.039,322.471,414.264,321.552,415.184Zm-1.532.919h-.306v-.613C320.02,415.8,320.02,415.49,320.02,416.1Zm.306-4.289c0,.613,0,.613-.306.919-.613-.919-.613,0-.919-.919Zm-.919,2.145v.306c-.613-.306-.306,0-.613-.306Zm-1.532.306c.306.306,0,0,.306.613h-.306Zm.919,3.37v-.613c.919-.306.613,0,.919-.613.919.919.613.919-.919,1.226v.306h-.613l-.306.613c-1.226-.613-.613,0-.613-.919C317.876,417.941,317.569,417.941,318.795,417.634Zm-2.451-7.966c.306.306.306.306.306.919h-.306Zm-1.225,5.515c.613-.613.919-.613.919-1.838.613.613.306.306.613.919-.613.306-.613.613-.919,1.532h-.613Zm-1.532-7.353c.306.613.613.306,0,.613Zm0,3.983c.306,0,.613.306.919.306v.306h-.919Zm-.306,11.642c.306-.306,0,0,.306-.613.306.306.306.306.306.919h-.613Zm-1.225-4.289V420.7h-.306v-.306c-.306-.306-.306-.306-.306-.919h.613Zm-19.608-77.82c.613.306.306.306.306.919h-.306Zm0,49.02v-.613C292.753,390.367,293.059,390.061,292.446,390.367Zm0,1.532v.306c-.613-.306-.306,0-.613-.306Zm-3.37,9.191a2.6,2.6,0,0,1,.919,1.532h-.613C289.076,401.4,289.076,402.316,289.076,401.09Zm-1.225-8.272h.613l-.306.306c-.613.613-.613.613-.919.306l-.306-.306C287.544,393.124,287.238,393.124,287.851,392.818Zm.919,6.128h-.306v-.613C288.77,398.639,288.464,398.333,288.77,398.946Zm-2.145,3.676c.306.306.306.306.306.919h-.306Zm.919,2.451h-1.226a1.07,1.07,0,0,0-.306-.613c.613-.306.306,0,.613-.306Q287.085,404.154,287.544,405.073Zm-1.532-17.157v.306c-.613-.306-.306,0-.613-.306Zm-1.225,20.834c.306,0,.613.306.919.306a5.68,5.68,0,0,0-.613,2.145l-.306-.306c-.306-.306,0,0-.306-.613C285.4,409.362,285.093,410.281,284.787,408.75Zm-.306.613v-.306h.306l-.306.306Zm.919-1.838h-.613v-.306c.306-.613.613-.613.613-1.532h.613A4.353,4.353,0,0,0,285.4,407.524Zm0-4.9c.306.306.306.613.306,1.532h-.613c-.306-.613,0-.306-.306-.613v-.306C285.093,402.622,284.787,402.928,285.4,402.622Zm-.613-2.145h.613v.306C285.093,400.477,285.4,400.784,284.787,400.477Zm.613-8.885c.306.613.613.306,0,.613Zm0,2.757v.306c-1.225,0-.613.613-1.532-.306Zm-.919,10.417c-.306.613,0,.306-.613,0Zm-.919,5.821a3.285,3.285,0,0,1,.613,1.838h-.613c-.306-.613,0-.306-.306-.613A1.842,1.842,0,0,1,283.561,410.588Zm-.613.306v-.306h.306Zm.919-2.451v.306l-.613-.613c0-.306.306-.613.306-.919C283.868,407.524,284.174,408.137,283.868,408.443ZM280.8,381.176v.306c-.613-.306-.306,0-.613-.306Zm.306,8.579H280.8v-.919C280.8,389.141,280.8,388.835,281.11,389.754Zm-.919,10.11c-.306.613-.613,2.451-1.532,2.757V401.4a3.317,3.317,0,0,0,.306-1.838A2.316,2.316,0,0,0,280.191,399.865Zm-.919-1.838v-.613h.613v.613Zm.919,6.434c.306.306,0,0,.306.613h-.306Zm-.613-9.191c-.613-1.226-.613,0,0-1.532.306,0,.613.306.919.306A4.228,4.228,0,0,1,279.578,395.269Zm0-9.191c-.613-.306-.306,0-.613-.306h.613Zm-.613-37.072h-.919v-.613c.306,0,.306-.306.613-.306C278.659,348.393,278.966,348.7,278.966,349.006Zm-.919-3.064c.306.306.306,0,0,.613v-.613Zm-.306,45.65c.306.306,0,0,.306.613h-.306Zm.306,2.145c-.306-.306-1.226-.613-.306-.613C278.047,393.124,278.659,393.124,278.047,393.737Zm0,5.515h0l-.306-.306v-.613C278.047,398.333,278.047,398.639,278.047,399.252ZM275.9,358.5c.306.613.306,0,0,.613l-.306-.306A.3.3,0,0,0,275.9,358.5Zm-1.226,28.8v-.613c.919,0,.919.306,1.532.306v.306Zm.919,9.5-.306-.306a2.585,2.585,0,0,1-.613-2.145h2.145v.613C275.289,395.575,275.9,395.882,275.6,396.8Zm1.225.306v-.613c.306.306,0,0,.306.613Zm-1.225-5.515c.613.306.919.306,1.532.613C276.208,392.818,276.208,391.9,275.6,391.592Zm1.532-2.145c0-1.225.306-1.838.306-2.757A3.091,3.091,0,0,1,277.128,389.448Zm-1.225,17.77h.613v.613H275.9Zm-.306.306v.306c-.613-.306-.306,0-.613-.306Zm-.919,3.37c.613,0,.613,0,.919.306C274.983,411.2,274.983,411.2,274.677,410.894Zm1.226,2.145c-.306-.306,0,0-.306-.613.919-.919.306-.306.306-1.225a5.176,5.176,0,0,0-1.532-.613v-.613c.613,0,.613,0,.919.306a4.229,4.229,0,0,0,1.225.919h0l.919.919v.306C276.515,412.733,276.208,413.652,275.9,413.039Zm1.225,4.289v.306c-.613-.306-.306,0-.613-.306Zm-.613,6.128v-.613c.306.306,0,0,.306.613Zm1.226-2.758h-.613c-.613.613-.306.306-.919.613V421c.306-.306,0,0,.306-.613h1.532v.306Zm2.145,2.451-.306-.306-.306-.306c.613-.306.306,0,.613-.306C280.191,422.843,280.191,422.23,279.885,423.149Zm.919-1.226c-.919-.919-.613-1.225-2.451-1.532,0-.613,0-.613.306-.919.919.919,0,.306,1.532.306v-.919c-.613,0-1.225-.306-1.838-.306l-.613-1.838c1.225-.613.613-1.226.306-2.451h.306c.306.919.613.919.613,2.145h.919c0,2.451.919,3.064.919,5.208Zm0-7.353v.613l.613.613h-1.532c0-.613-.306-1.226-.306-1.838a2.981,2.981,0,0,0,1.838-1.532c-1.226-1.225-.613-2.145-.919-3.677-.613.306-.306,0-.613.306h-.306a7.864,7.864,0,0,0,.613,1.532h-.919c-.306-.306,0,0-.613-.306v-.919c.613-.613.306-.613.919-.919v.306l.306-.306a3.479,3.479,0,0,0,.919-2.451l-.306-.306c-.613.306-.306,0-.613.306-.306.613,0,.919-.306,1.532-.306-.306,0,0-.613-.306a5.972,5.972,0,0,1-.306-2.451l-.306-.306h1.532c.613,1.225,1.226.613,1.838,1.838.919,1.532-.306,2.757,0,4.9.613.613.919,1.532.919,3.677H280.8ZM282.03,401.4h-.613v-.613h.613Zm.306-6.128c-.613-.306-.306,0-.613-.306h.613Zm.613-8.272s.613.306.306.613C282.642,387.3,282.03,387,282.949,387Zm.919,28.187c.613,0,.613,0,.919.306C284.174,415.49,284.174,415.49,283.868,415.184Zm1.838,0c-.919-1.532-1.838-.919-2.757-2.451h.613c.613.613.306.613,1.532.613.613-1.532.613-.306.919-1.532A2.746,2.746,0,0,1,285.706,415.184Zm1.226-9.8h0c-.306.306-.306,0-.306,0Zm-.306,8.885v-.613C287.238,413.958,287.238,413.958,286.625,414.264Zm.919,2.757v-.306c.613-.919.306-1.225,0-2.145h1.532c.306.613,0,.306.306.613C288.77,416.409,288.77,416.715,287.544,417.022Zm1.532,2.757v-.613c.306.306,0,0,.306.613Zm0-7.659c0-1.225-.306-1.532-.919-2.757,1.225.306,1.532,1.532,2.451,2.145v.613h-1.532Zm1.226-4.6s.613.306.306.613C290.3,408.137,289.383,407.524,290.3,407.524Zm0,16.238c-.613-.306-.306,0-.613-.306h.613Zm.919-.919h-.613v-.306c-.306-.306,0,0-.306-.613.306,0,.613.306.919.306v.613Zm0-4.6c-.613-.306-.306,0-.613-.306H290.3c0-.306-.306-.613-.306-.919.919.613.306,0,.613.919h.613Zm-.613-5.515c.613.613.306.306.613.919C290.3,413.345,290.608,413.652,290.608,412.733Zm.613-7.659c-2.145.306-.306.306-2.145.613.306,1.225.306.613.613,1.532h-.919c-.613-1.225-.919-.919-.919-2.451l.306-.306h.306v.919h.919v-.919a3.317,3.317,0,0,1,1.838.306v.306Zm.613-2.451v-.613c.306.306,0,0,.306.613Zm-.613-8.272a2.3,2.3,0,0,1,1.532.306A2.3,2.3,0,0,1,291.221,394.35Zm1.532,23.9v-.613c.306.306,0,0,.306.613Zm.306.919v-.613c.306.306,0,0,.306.613Zm.306-1.838h-.306v-.919h.613A1.125,1.125,0,0,1,293.365,417.328Zm16.851,5.821c-.613-.306-.306,0-.613-.306H309.3v-.613c.306.306,0,0,.306.613h.613Zm-.613-14.4c.306.306,0,0,.306.613H309.6Zm0,3.677c.306.306,0,0,.306.613H309.6Zm0,2.757c.306.306,0,0,.306.613H309.6Zm-1.225,1.225c.613,0,.613,0,.919.306-1.532.919-.613,2.145-.613,3.064h-.306A6.267,6.267,0,0,1,308.378,416.409Zm-.306,3.37c.306.306.306.613.306,1.532h-.306V421C307.765,420.392,308.072,421,308.072,419.779Zm-.613-3.677v.306c-.613-.306-.306,0-.613-.306Zm-2.757.306a6.693,6.693,0,0,0-.919,1.532v-.306c-.919-.613-.919-.306-.919-1.532h2.145v.306Zm-.613-1.838c-.613-.306-.306,0-.613-.306h.613Zm-1.532-2.145c.306.306.306,0,.306.306h.613v.306c-.306,0-.306,0-.613-.306h0c0,.306-.306.306-.306.613l-.306-.306v-.306A.3.3,0,0,0,302.557,412.426Zm-.919,1.838a7.864,7.864,0,0,1,1.532.613,9.715,9.715,0,0,0-1.532,1.838c1.532.919.919.613.306,2.145l-.306-.306a2.978,2.978,0,0,1-.306-2.757c-.919,0-.613.306-.613-.613C301.025,414.571,301.331,414.571,301.638,414.264Zm-2.451-2.757c.306-.306,0,0,.306-.613h.613c0,.306-.306.613-.306.919h-.613Zm-.306,7.659a1.07,1.07,0,0,1,.613.306v-.306a3.235,3.235,0,0,0,.613-1.532v.306h.306c-.306,1.225,0,1.225,0,2.451-1.225.306-1.225.613-1.532.306C298.574,420.086,298.574,420.086,298.88,419.166Zm-1.532-3.983c.306.306,0,0,.306.613h-.306Zm0,6.434c-.613-.306-.306,0-.613-.306h.613Zm-.919-9.5c.306.306,0,0,.306.613h-.306Zm.613,6.434v.306c-.613-.306-.306,0-.613-.306Zm-.613,3.064c.306.306,0,0,.306.613h-.306Zm-1.225-7.047c.613.613.613.306.613,1.532-.919.306-.613.613-.919.919a4.543,4.543,0,0,0-.306-2.145C295.2,414.571,294.9,414.877,295.2,414.571Zm-1.838-4.9c.919.613.306,0,.613.613-.306.306-.613.613-.613.919h-.306v-.613C293.365,410.281,293.365,410.281,293.365,409.669Zm0-13.481c-.613-.306-.306,0-.613-.306h.613ZM305.927,348.7h-.613v-.613h.919v.613Zm-11.336,20.221c0,1.532,1.226.306,0,0Zm0-1.532c-.613.613,0,.919.613,1.225A.734.734,0,0,0,294.591,367.389Zm0-2.451c-.306.613.306.613.306,1.532C295.817,366.776,295.51,364.631,294.591,364.938Zm0-10.417a1.174,1.174,0,0,0,.613,1.838A4.356,4.356,0,0,0,294.591,354.521Zm0,2.451c-.306.306-.613,1.838.613,1.532C294.9,357.891,295.51,357.278,294.591,356.972Zm.919-3.064H294.9v.613h.613ZM525.6,283.441c-.306.306-.613,1.838.613,1.532C525.6,284.054,526.212,283.748,525.6,283.441ZM363.832,351.457c-.306,0-.613-.306-1.225-.306v.919A1.592,1.592,0,0,0,363.832,351.457Zm-1.532,3.064c.306,0,.306.306.613.306,0-.306.306-.306.306-.613-.306,0-.306-.306-.613-.306C362.607,354.215,362.3,354.215,362.3,354.521Zm162.992-66.177v.919a.812.812,0,0,0,.919-.919ZM364.445,354.521c-.306-.306-.919.306-.919.306C362.607,355.746,364.751,354.827,364.445,354.521Zm-3.983-2.145c.306.613,1.838,2.451,2.145.613C361.381,353.3,361.688,352.07,360.462,352.376Zm33.4,39.216a10.581,10.581,0,0,0-1.532-5.515,24.127,24.127,0,0,0-5.208-6.128,39.928,39.928,0,0,0-4.6-3.064c-1.226-1.532-2.757-2.145-4.6-3.064-1.225-.613-2.757-1.225-3.983-1.838a84.683,84.683,0,0,1-9.191-4.6,26.956,26.956,0,0,1-3.064-1.838.812.812,0,0,0-.919-.919l-.613-.613a2.3,2.3,0,0,0,.306-1.532,1.842,1.842,0,0,0-1.226.306c.306,0,.306.306.306.613-.306-.306-.306-.613-.613-.613-.306-.919.306-1.838,1.226-1.226,0-1.225-.919-2.757-2.145-2.145.613.306.613,1.225,0,2.145v-.306a1.07,1.07,0,0,0-.306-.613v-.306h0c0-.613-.306-.919-.306-1.532.613,0,.919,0,1.225-.306-.306-.919-.919-.919.613-.919.306-1.226-.919-.613-.613-2.145.919.306.613-.306,1.225-.613.613.306,1.838,1.226,1.838-.306-1.532,0-1.838-1.838-2.451,0,0-.613-.613-.919-.613-1.532a6.634,6.634,0,0,1,4.6-3.37v.613h.613v-.613h-.613a4.543,4.543,0,0,1,2.145-.306h.613c.306,0,.613.306.919.613a1.391,1.391,0,0,1,1.532,0,4.21,4.21,0,0,1,2.451,1.532,5.5,5.5,0,0,1,1.532,2.145l.613,2.145a9.445,9.445,0,0,1,.306,3.064h19a10.422,10.422,0,0,0-.306-3.064,13.555,13.555,0,0,0-1.532-4.6,18.914,18.914,0,0,0-4.9-9.5c-4.6-4.9-11.03-8.272-20.527-8.272a26.353,26.353,0,0,0-4.9.306,16.261,16.261,0,0,0-5.821,1.838,22.719,22.719,0,0,0-9.5,5.821A24.311,24.311,0,0,0,338.4,358.2c0,11.949,6.128,21.14,21.14,27.574h.613A6.411,6.411,0,0,1,361.994,387a32.665,32.665,0,0,1,5.821,2.145c5.208,2.757,7.659,5.821,7.659,11.03,0,5.515-3.983,8.885-9.5,8.885l-.306.306c0-.306-.306-.306-.613-.306a5.981,5.981,0,0,1-2.145-.306l-2.757-.919a13.8,13.8,0,0,1-2.757-3.064,12.013,12.013,0,0,1-1.838-7.047h-1.838l-2.451.306-5.208-.306h-9.8a16.184,16.184,0,0,0,.306,3.983,17.3,17.3,0,0,0,1.838,6.128,17.288,17.288,0,0,0,4.6,9.5c2.757,3.37,6.74,5.515,11.949,7.047h0a35.2,35.2,0,0,0,10.11,1.225,33.04,33.04,0,0,0,14.093-2.757,21.21,21.21,0,0,0,6.74-4.289,22.417,22.417,0,0,0,6.128-8.272,32.388,32.388,0,0,0,2.451-12.255v.307a14.916,14.916,0,0,0-.306-3.677C394.776,393.431,394.163,392.512,393.857,391.592Zm-53-30.638h0v-.613C341.16,360.648,340.854,360.648,340.854,360.955Zm8.885-7.353h0c0-.613.306-.919.306-1.225.613.306.919.306.919.919h-1.226Zm1.838,26.961c-.613-.306-.306,0-.613-.613l.613.613Zm.306-31.863h-.306v-.613h.613C351.883,348.087,351.883,348.393,351.883,348.7Zm5.208-1.225c0-.613.306-.919.306-1.532h.613v.306c0,.306-.306.919-.306,1.226Zm.306,9.5Zm.613-1.838h0c.306-.613.306-.613.306-.919.306.306.306.306.306.613-.613.306-.306.613-.306,1.532H357.4A2.323,2.323,0,0,0,358.011,355.134Zm-.306,2.145v0Zm-12.255,51.165v-.613c.306.306,0,0,.306.613Zm5.208,14.706v-.613c.306.306,0,0,.306.613Zm3.677-6.128v.306c-.613-.306-.306,0-.613-.306Zm.306,2.451c-.613-.306-.306,0-.613-.306h.613Zm.306-1.838c.613,0,.613,0,.919.306C355.254,417.941,355.254,417.941,354.947,417.634Zm6.128,7.047-.306-.306c-.306-.613-.306-.306,0-.919.613.613.306.306.613.919A.3.3,0,0,0,361.075,424.681Zm3.37,1.225v-.613c.306.306,0,0,.306.613ZM290.608,231.97c.306.306.613.613.613.919l.306-.306v-.613c0-.306-.306-.306-.306-.613h-.306ZM638.652,319.9h0v0ZM364.445,330.624v.613h.919C365.364,330.624,365.058,330.624,364.445,330.624Zm-2.451,27.268c-.306,0-.306-.306-.613-.306C360.768,358.2,361.994,358.81,361.994,357.891ZM489.14,231.051c-.613.306-1.226.613-1.532,0a1.126,1.126,0,0,0,.306-.919h-2.757v.306h0v10.723h.306l-.306.306v5.208h20.221v72.3l11.642.306,3.983-.306h3.983l-.613-.919v-3.677l.306.306c0-.306,0-.613-.306-.613v-2.145h.306c0-.306.306-.306.306-.613h-.306v-3.677h0V306.42h0v-.613h0v-8.272h.306v-.613h-.306V284.361h0v-3.37a.3.3,0,0,0,.306-.306h-.306v-24.51l.306-8.272h20.527l-.306-1.226-.306-1.838.613-5.208v-8.272H489.753C489.447,230.438,489.447,230.745,489.14,231.051ZM487,237.485l-.306.306v-1.225h.613A1.125,1.125,0,0,0,487,237.485Zm-.613-1.838c.306,0,.306.306.613.306C486.383,235.953,486.689,235.953,486.383,235.647Zm1.226-3.37h-.919c0-.306.306-.613.306-.919h.613Q487.608,231.817,487.608,232.277Zm.919,10.417h0a.424.424,0,0,1,0-.613c.306.306.306.306,0,.613Zm.919-7.047h0c-.613.306-.919,0-1.225,0-.306-.613,0-1.226,0-1.838.613.306.613.919,1.225,1.226Zm3.064-.306h.613v.306C492.817,235.647,492.817,235.647,492.51,235.34Zm.306,6.128h0c.306-.306.306,0,.306,0Zm3.677,3.983v-.306l.613.306A.424.424,0,0,0,496.493,245.451Zm1.225,1.225h0v-.306h.306C498.332,246.37,498.025,246.676,497.719,246.676Zm3.37-15.625.613-.613h0v1.226h-.613Zm-1.225,11.336h0c-.306,0-.306,0-.306-.306Zm-2.145-6.434c.306,0,.306-.306.613-.306l.613.613a1.592,1.592,0,0,1-.613,1.225l-.613-.613C497.412,236.566,497.719,236.259,497.719,235.953Zm-.306,5.208H496.8A.424.424,0,0,1,497.412,241.161Zm-2.757-9.5c.306.306.613.306.613.613h-.919C494.349,231.97,494.349,231.97,494.655,231.664Zm1.226,1.532c0,.306-.306.306-.306.613-.306-.306-.306,0-.306-.613C495.268,232.889,495.574,232.889,495.881,233.2Zm-.613,5.208c.306,0,.613.306,1.226.306a4.081,4.081,0,0,1-.919,1.532c-.919-.306-1.532-.306-1.838-1.226C494.655,239.017,494.961,239.017,495.268,238.4Zm-.919,3.677c.306.613,0,.613,0,1.226-.613,0-.306,0-.613-.306C493.736,242.693,494.042,242.387,494.349,242.081Zm-1.838-11.03h0c.613,0,.613,0,.613.306H492.2C492.51,231.357,492.51,231.357,492.51,231.051Zm-2.451,15.012h0c-.306-.919-.306-.919,0-1.225.306,0,.306.306.613.306C490.672,245.451,490.366,245.757,490.059,246.064Zm0-7.047h.306s0,.306-.306,0Zm-.613-5.515V233.2l.306-.306C490.366,232.889,489.753,233.2,489.447,233.5Zm.306-1.225h0c-.306,0-.306-.306-.613-.306l.613.306c-.306-.306-.306-.613,0-.613h.306C489.753,231.97,489.753,231.97,489.753,232.277ZM361.994,329.092a2.517,2.517,0,0,0,1.532,1.532C363.526,329.4,362.607,329.7,361.994,329.092Zm249.084,28.8a11,11,0,0,0-.613-5.515,23.711,23.711,0,0,0-3.677-7.966h0a.3.3,0,0,1-.306-.306,24.76,24.76,0,0,0-4.9-4.9,18.818,18.818,0,0,0-7.966-4.6,35.515,35.515,0,0,0-10.417-1.532v.613l-2.757-.613H555.318l.306,7.047a.3.3,0,0,1,.306-.306c2.145,2.145,1.225,2.451,0,2.451v3.37a2.591,2.591,0,0,1,0,2.145V353.6l-.613,23.9V422.23l1.838-.306h17.464V390.06H583.2a24.762,24.762,0,0,0,4.9-.306,13.317,13.317,0,0,0,6.128-2.145,16.848,16.848,0,0,0,10.11-5.821c4.6-5.208,7.047-12.255,7.047-20.221v-1.838C611.691,359.423,611.385,358.5,611.078,357.891Zm-21.446-19.914c1.225,1.532,0,2.145,0,0Zm-2.145,3.983c-1.838-1.532-.306-.919-1.225-2.451C588.1,338.9,588.406,339.815,587.487,341.959Zm-.613.613c1.225,1.532,0,3.677,0,0ZM583.2,343.8c5.821,4.9,0,3.983,0,0Zm-27.268-8.272c3.064,0,0,3.064,0,0Zm1.225,7.659c1.225,1.532,0,2.145,0,0Zm2.451,1.225c-1.225.306-.613-1.225-.613-1.838C560.526,343.8,559.3,343.185,559.607,344.41Zm-.613-3.676c2.145,0,1.532.919,0,0Zm33.4,23.285c-.613,6.434-3.677,9.5-8.885,9.5h-8.579V362.18l-.306-7.659v-2.145l.613-1.532h8.579c3.37,0,5.821,1.532,7.659,4.6.306.613.613,1.532,1.226,2.757a2.617,2.617,0,0,0,0,2.145v2.145l.613.306C592.389,362.793,592.389,363.406,592.389,364.019Zm1.225-26.042c2.145,0,1.226,1.226,0,0Zm6.434.613c2.451,1.225,1.225,6.74,0,0ZM363.219,360.342c.306-.613-.919-.919-.919-.306.306,0,.306,0,.306.306Zm-84.56,57.292h.919v-.613a1.07,1.07,0,0,1-.613-.306A1.126,1.126,0,0,0,278.659,417.634ZM525.6,282.522c.306-.306,0-1.838-.613-1.838C524.68,281.3,524.986,282.522,525.6,282.522Zm0-4.6c0-.306.613-.613.613-1.225C525.293,276.7,524.68,277.62,525.6,277.927Zm.306.306c-1.225,0-1.225,1.532,0,1.532C526.212,279.152,525.293,278.846,525.905,278.233Zm-.306,2.451h.613v-.613H525.6ZM354.028,318.062l9.191-54.535,2.145-13.481,2.145-11.949,1.532-8.885h-1.226l-2.451-.306-9.5.306-4.6-.306h-2.145v.919c-.919,0-1.226,0-1.532-.306l.613-.613h-.613v.613l-.306,2.757v1.838l.306-.306h.306v.919h0a.3.3,0,0,1-.306-.306l-1.226,12.255v1.532l.306-.306c.306,0,.613.306.919.306v.306a1.07,1.07,0,0,0-.613.306c-.306,0-.306-.306-.613-.306l-.919,9.8-1.532,15.319-1.838,19.3-2.757-17.157-1.838-11.642L335.033,247.9l-.306-.919h-.306v-1.225l.306.306-.919-6.434c-.306,0,0,0-.306-.306h.306l-1.532-10.417h-3.064l-5.821-.306h-8.272c0,.306.306.613.306.919h-.919a1.125,1.125,0,0,0-.306-.919H309.91l-.613,4.9a.3.3,0,0,0,.306-.306c.306,0,.613.306.919.306v.613c-.613,0-.919.306-1.532.306l-1.532,9.191h.306c-.306.306-.306.613-.613,1.225h0L299.8,292.633l-3.983-41.667h0v.306h.306l-.919-7.966c-.613.919-1.532,1.225-2.145,2.145l-.306-.306c0-.613,0-.613-.613-.919.613-.919.919-1.225,1.532-2.145h.613v1.225h.613l-.306-4.6a2.316,2.316,0,0,1-.306,1.225c-.306,0-.613.306-.919.306-.306-.306-.306-.613-.613-.613,0-.613,0-.306.306-.613h.919c-.306-.613-.306-1.226-.613-1.838a1.592,1.592,0,0,0,.613-1.225l-.306-4.6h-1.225c0,2.451-.306,4.6-2.145,3.677v-.306c0-.306.306-.613.306-1.226-.613-.613-.919-.919-.919-1.532a9.172,9.172,0,0,0,2.451-1.225,2.762,2.762,0,0,1-.306-1.532h-2.451l-.613.613c-.306,0-.613-.306-.919-.306v-.306H282.03a6.7,6.7,0,0,1-1.532.919c-.306-.306-.613-.306-.919-.613-.306.306-.613.306-.613.613-.306-.306-.613-.306-.919-.613v-.613h-3.064c-.306.919-1.532,1.226-2.145,1.838s-.613,2.145-1.225,3.37v.613l.613.613h0a3.383,3.383,0,0,0,0,2.451c.613,0,.919-.306,1.226.306v.919a4.23,4.23,0,0,1-1.226.919l.613,3.677a.3.3,0,0,0,.306-.306c.613.306.306.306.613.613-.306,0-.613-.306-.919-.306l.306,1.838c.306.306.613.306,1.225.613l-.306.306a1.07,1.07,0,0,0-.613.306l.306,1.532h0c.613-.306.919-.613,1.532-.613h.306a4.229,4.229,0,0,0-.919,1.225c-.306,0-.613-.306-.919-.306l2.757,16.544v-.613l.306-.306h1.225v.613c-.613,0-.613,0-.919.613h0l.613,3.37.306-.306c.306.613.306.613,0,1.226l2.451,14.093v.306l4.9,27.88c0,.306.306.306,0,.613l.919,4.9h.919l2.451.306,6.128-.613h14.4V313.16l1.532-7.047,2.451-16.544,1.532-11.949,2.145-13.174,2.145-13.174.306,1.838.919,4.289,1.226,10.417,3.677,24.51,1.532,10.11.919,8.579.919,6.74h24.51Zm10.417-87.93h0c.613,0,.613,0,.613.613h-.613Zm-1.838,3.983c.306-.306.306-.613.613-.919.306.306.306.306,0,.613,0,.919-.306.613-.919.919l-.306-.306C362.3,234.421,362.3,234.421,362.607,234.115Zm-1.838-1.225h.613v.306l-.306.919h-.613l-.306-.306C360.156,233.5,360.462,233.2,360.768,232.889Zm-2.757,22.672h.306c-.306.306-.306.306-.613.306C357.7,256.174,358.011,255.868,358.011,255.561ZM356.479,233.5h.613v.919h-.613Zm-6.128,8.272v.306h-.613v-.919Zm-.306-1.838v-.613a1.07,1.07,0,0,1,.613.306v.306h-.613Zm.919,47.182-.613-.613V286.2a1.07,1.07,0,0,1,.613.306Zm4.9-50.552c-.613-.306-.306,0-.613-.306h.613Zm.306.613c.306.306.306.306.306.613h-.306Zm-.919-7.047c.306,0,.306.306.613.306v.306h-.613C354.947,230.745,355.254,230.438,355.254,230.132Zm-2.145,3.983c.306-.306.613-.306.919-.613.613.306.919.306,1.532.613v.613h0l-2.451-.613Zm0,15.013h.306v.613h-.306C352.8,249.434,353.109,249.434,353.109,249.127Zm-.613,54.535h.613c0,.306,0,.306-.613,0,0,.613.306.306,0,.613Zm-.919,8.885c.306,0,.306.306.613.306,0,.613,0,.306-.306.613C351.271,313.16,351.271,312.854,351.577,312.547Zm-.306-64.033-.306.613h-1.226v-.613c.306-.306.306-.613.613-.919.306,0,.306.306.613.306C351.271,248.208,351.271,247.9,351.271,248.515Zm-1.532-14.4c.613.306.306.306.613,0,.306,0,.613.306.919.306-.306.306-.306.306-.613,0,0,.306-.306.613-.306,1.226h-.919A2.762,2.762,0,0,1,349.739,234.115Zm-.613,42.586c.306.306,0,0,.306.613h-.306Zm0-19.608h-.919v-.919l.919.919Zm-.919-4.289Zm0,1.532h0c.306.613.306.613.306.919H347.9v-.919Zm.613-7.659c-.613,0-.306,0-.613-.306C348.207,246.676,348.513,246.676,348.82,246.676Zm-1.225-15.319v-.306h.919v.306Zm.306,80.883c0,.306-.306.306-.306.613h0v-.919Zm-.919-75.062c.306.306.306,0,.306.613C346.675,237.791,346.675,237.791,346.981,237.179Zm-.306,6.74c0-.306.306-.613.306-.919l.613,1.226A1.126,1.126,0,0,0,346.675,243.919Zm-1.226,10.723h0c0,.613.306.306,0,.306Zm-6.434,28.493h.306l-.306.306h0ZM291.221,246.37h-.306v-.613C291.221,246.064,291.221,246.064,291.221,246.37Zm-.919-10.723c.613,0,.613,0,.919.306h0c-.306.306-.613.306-1.225.613v-.613A.3.3,0,0,0,290.3,235.647Zm-1.226,2.145.919-.306h.306l.306.306c.306,1.226,0,2.145-1.226,2.145l-.306-.306Zm1.532,4.6c0,.306-.306.306-.306.613a19.529,19.529,0,0,0-2.145.613h0c.306-.613.613-2.451.919-3.064C290,241.161,289.689,242.081,290.608,242.387Zm-2.145-11.03a1.07,1.07,0,0,1,.613.306h0v.919h-.613C288.157,231.97,288.157,231.664,288.464,231.357Zm-1.838.306c.613.306,1.226.919.613,1.532a1.07,1.07,0,0,1-.613-.306Zm-.613,0v.306h0c-.306,0-.306,0,0-.306C285.706,231.97,285.706,231.664,286.012,231.664Zm-2.451.919h.919v.306h-1.225A.3.3,0,0,1,283.561,232.583Zm-.919,3.983c.919.306.613.613.919,1.225h0v.306h-.613c0-.306-.306-.306-.306-.613C282.336,237.179,282.642,236.872,282.642,236.566ZM283.868,243c-.306,0-.306.306-.613.306v-.613A.949.949,0,0,0,283.868,243Zm-3.983-10.417h.919v.919h-.613v-.919Zm.613,1.532c.306,0,.306.306.613.306v.306c-.306,0-.613-.306-.919-.306Zm-1.838-.306c.306.306.613.306.613.613-.306.306-.919.306-1.225.613v-.306C278.047,234.421,278.353,234.115,278.659,233.808Zm-.613,5.515h.306c-.306.306-.306.306-.613.306A.3.3,0,0,0,278.047,239.323Zm-.306,1.532c.306.306,0,0,.306.613l-.306.306Zm-.919-8.885h0c0,.306.306,0,0,0Zm.306,9.8h-.613c0-.613-.306-.919-.306-1.532,0-.306.306-.306.306-.613C277.128,240.242,276.821,241.161,277.128,241.774ZM275.9,230.438l.306-.306c0,.306,0,.306-.306.306Zm-1.532.306c.306,0,.613.306,1.226.306v.306c-.613.306-.613.613-1.532.613l-.306-.306C274.064,231.664,274.064,231.357,274.37,230.745Zm.919,13.787h-.613l-.306-.306v-.306h.919Zm-.919-2.451v-1.532c.306,0,.306.306.613.306v1.532h0C274.37,242.387,274.677,242.387,274.37,242.081Zm.919-1.838h-.919a5.68,5.68,0,0,0,.613-2.145c.613.306.919.613.919,1.226C275.289,239.63,275.289,239.936,275.289,240.242Zm-.306-3.983h0c-.613-.613-.613-.919-.919-1.226h-1.225c.306-.306.306-.613.613-.919a4.543,4.543,0,0,1,2.145.306c.613-.613.919-1.225,1.532-1.838a3.383,3.383,0,0,1,0,2.451c-.613,0-.306,0-.919-.306C275.6,235.34,275.289,235.953,274.983,236.259Zm1.838,23.9c-.306,0-.306-.306-.613-.306v-.613h.306C276.821,259.238,276.821,259.544,276.821,260.157Zm.613-2.451-.306-.306v-.306c.613.306.306,0,.306.613Zm0-7.353-.306-.306c0-.306-.306-.919-.306-1.225l.613-.613c.306.306.613.613.613.919C277.434,249.74,277.434,250.046,277.434,250.353Zm.613,9.5h0l-.306-.613c.306,0,.306,0,.306.613C278.353,259.544,278.047,259.544,278.047,259.85Zm.306-8.885c0-1.532-.306-3.064.306-4.6.613.306.306,0,.613.306.919,1.226,0,2.757,0,4.289Zm1.226,2.757c-.613-.306-.919-.306-.919-.919C279.578,252.8,279.578,253.11,279.578,253.723Zm.613,13.174c-.613,0-1.226-.306-1.838-.306v-1.225h1.226c.306,0,.306.306.613.306Zm-.306-15.012v-.306c.306.306.306,0,0,.306Zm.306-6.128c-.306,0-.613.306-1.226.306-.306-.613-.306-.613-1.225-.613-.306,0-.306.306-.613.306,0,.306-.306.613-.306.919h-.613v-.613c.613-.613.306-.613,0-1.532.306-.306.306,0,.306-.613a6.7,6.7,0,0,1,1.532.919h.306c0-.613-.306-.919-.306-1.532l.306-.306h.919C280.191,244.225,280.5,244.838,280.191,245.757Zm-.306-5.515c-.306-.919-.613-.919-1.226-1.532V238.4h.306c.613.306,1.532.613,1.838,1.225l-.306.306C280.5,240.242,280.5,240.242,279.885,240.242Zm1.532,25.736h0c-.613-.613-.613-.306-.306-.613a1.069,1.069,0,0,1,.306.613Zm0-17.463c.306.306.306.306,0,.919Zm.306-3.677c-.306-1.225-.919-1.225-.919-2.757.306-.306.613-.306.613-.613.919.613.306,1.226,0,1.838.306,0,.306.306.613.306.919-.306,1.225,0,1.532.613v.306h-.306A4.1,4.1,0,0,1,281.723,244.838Zm1.838,11.642h-.306l.306-.306h.306Zm0-9.191h0c0-.613.306-.919.306-1.226h.613v.919h-.919Zm1.225-10.723v-.306c.306,0,.306.306,0,.306Zm0-.613Zm-.613-.306c-.306-.306-.306-.613-.613-.919,0-.306.306-.613.306-.919.919,0,.613.613,1.225.613,0,0,3.064-.306,3.677-.306v.919c-.306.306-.306.613-.613.919-.306,0-.613.306-1.225.306,0-.919.306-.613-.306-1.225A9.473,9.473,0,0,0,284.174,235.647Zm3.37,10.417h0c-.613,0-.613-.306-.919-.306-.613-.613,0-.919.306-1.532C287.544,244.532,287.544,245.451,287.544,246.064Zm-1.838,6.434Zm.306,15.625H285.4c0-.306.306-.613.306-.919.306,0,.306.306.613.306Zm0-27.268c.306.306.306,0,.306.613h-.306Zm.613,9.5c0-.306-.306-.613-.306-.919.613-.306.306,0,.306-.613.306,0,.613.306,1.226.306A2.392,2.392,0,0,1,286.625,250.353Zm1.838-13.174c.306.306.306.306.306.919h-.919C287.851,237.485,288.157,237.485,288.464,237.179Zm-.306,13.787c0-.919.306-1.838.306-2.451a3.457,3.457,0,0,1,.306,2.451Zm.306,5.821h0c-.306-.306-.306-.613,0-.613,0-.306.306-.306.306-.613l.306.306C289.076,256.174,288.77,256.48,288.464,256.787Zm.613-2.451v-.306l.306-.306.919.919h-1.226ZM290,272.412v0Zm.306-11.03h0l.613-.306v.613h0c-.306,0-.613,0-.613-.306Zm.306,3.983v-.613h.613l-.613.613Zm1.532,18.383h-.919l.306-.306c0-.306.306,0,.613.306Zm-.613-32.17-.306-.306a1.07,1.07,0,0,1,.306-.613c.306.306.306.613.613,1.226h-.613Zm3.37,14.706-.306-.306v-.919c.306,0,.306.306.613.306C294.9,265.978,294.9,265.978,294.9,266.284Zm6.434,19.3h0c.306,0,.306-.306.306.306C301.638,285.586,301.638,285.586,301.331,285.586Zm2.757-1.532c-.613-.306-.613,0-.306-.613h.306Zm3.983-45.037c.306,0,.306.306.613.306,0,.613,0,.306-.306.613C307.765,239.63,307.765,239.63,308.072,239.017Zm-1.226,7.659v-.613c.306,0,.306.306.613.306v.306Zm-.306,7.966h0c-.306-.306-.306-.613,0-.613h.306C306.846,254.336,306.846,254.336,306.54,254.642Zm1.226,4.289h0a.424.424,0,0,1,0-.613h.306C308.072,258.625,308.072,258.625,307.765,258.931Zm.613-9.8-1.532,1.532h-.613v-1.225c.919,0,.919-.306,1.226-.919h.613v.613Zm.613-7.047h-.613a4.231,4.231,0,0,0-1.225-.919v-.919c.919.306,1.225,1.225,1.838,1.532Zm.306-10.723h0q1.379-.46,1.838,0c0,.306-.306.613-.306.919A2.8,2.8,0,0,0,309.3,231.357Zm2.757,3.064-.306.613h-.613v-.613C311.135,234.115,311.748,234.421,312.054,234.421Zm-1.225,2.757h-.919v-.306c.919,0,1.226.306,1.838.306v.613c0,.613,0,.613-.613.613C311.135,237.791,311.135,237.485,310.829,237.179Zm.919,20.834Zm2.145-19.3h-.613a1.07,1.07,0,0,1,.306-.613l.306.306Zm15.012-7.047h0v0Zm-2.451,5.515c.306,0,.306.306.613.306l-.306.306h-.306Zm.613,15.625ZM324,231.664a1.07,1.07,0,0,1,.613.306l-.306.306H324Zm-.919,2.757c.306-.306.306,0,0,0,.919-.306.919-.306,1.225.306h.306v.306H323.39v-.613Zm-1.226,6.434c-.306,0-.306-.306-.613-.306-.306-.306-.306,0-.306-.613l.306-.306c.613,0,.613,0,.919-.613V238.4c.306,0,.306.306.613.306A2.385,2.385,0,0,1,321.859,240.855Zm.919,2.451-.306-.306.306-.613C323.084,243,323.084,243,322.778,243.306Zm-4.6-12.868c.306.306.613.306.613.919v.306h-.613Zm-.613,4.289v-.306c.613-.613.613-.919,1.225-1.225h0v1.225a2.617,2.617,0,0,1,2.145,0v-.613c.919,0,.919.306,1.225.613h0a1.07,1.07,0,0,1-.306.613c-2.451.306-2.757,1.532-3.677,3.064h-.613c-.306-.306-.613-.306-.919-.613a4.5,4.5,0,0,0,1.838-1.532v-.919C318.488,234.728,318.182,234.728,317.569,234.728Zm.919,6.74v-.919a.574.574,0,0,1,0,.919Zm0,.613a1.07,1.07,0,0,1-.306.613c0-.306,0-.613.306-.613Zm-1.532.613h.919l-.613.613c-.306,0-.306,0-.306-.613Zm-2.451,21.753h0a.574.574,0,0,1,0-.919h.306A1.125,1.125,0,0,0,314.505,264.446Zm.306-9.8h-.306v-.613c.306,0,.306.306.613.306A.3.3,0,0,0,314.812,254.642Zm0-8.579Zm.613-13.787h0v-1.532h.613v1.532Zm1.225,2.451h-.613v-.306l.613.306Zm.919,14.4h-.613v-.613h.919C317.876,248.821,317.876,248.821,317.569,249.127Zm-.306-3.983a1.069,1.069,0,0,1,.306-.613h.306v.613Zm1.532,2.451c-.306,0-.306.306-.613.306h0v-1.838h.613Zm1.532-1.532h0c-.306-.306-.306-.306-.306-.613s.306-.613.306-.919l.613.306Zm2.757,1.838h-.613c-.306-.613,0-.306-.613-.613,0,.613,0,.306-.306.613l-.306-.306v-.306l.919-1.226h.919V247.9Zm1.838-7.659h-.306c0-.306-.306-.306-.306-.613.306-.306.306-.613.613-.919Zm0,8.579Zm.613.613h0a.3.3,0,0,1-.306-.306c.306,0,.306,0,.306.306Zm.613.919h.613v.613h-.306a1.07,1.07,0,0,1-.306-.613Zm1.838,8.885c-.306,0-.613.306-1.226.306l-.306-.613v-.306c.919,0,1.226,0,1.532.613Zm0-24.51.613-.613.306.306c0,.306-.306.613-.306.919h-.306C328.292,235.034,327.986,235.034,327.986,234.728Zm.919,5.515V238.4l.613,2.145C329.212,240.549,328.905,240.549,328.905,240.242Zm1.226-.306h0v-.919c.306.306.306.306.306.613Zm1.532-2.757h-.613l-.306-.306c0-.613,0-.613.306-.919.613.306.613.306.613,1.226Zm194.243,57.905a.734.734,0,0,0-.613-1.226C524.986,294.165,525.6,294.777,525.905,295.084ZM360.768,357.278h-.613v.613h.613ZM524.68,313.16c.613,0,.919,0,.919-.613C525.293,312.547,524.68,312.547,524.68,313.16Zm1.226-27.268c-.306-.306-.613,0-.613.306C524.986,286.812,526.518,286.2,525.905,285.892ZM359.543,358.5c-.306,1.225,1.532.306.919-.306A3.087,3.087,0,0,0,359.543,358.5Zm166.363-71.079c-.306,0-.306-.613-.613-.613C524.986,287.424,525.905,288.037,525.905,287.424Zm-.306,5.515c1.225.306.919-1.838-.306-1.532C524.986,292.02,525.6,292.02,525.6,292.939Z" transform="translate(-271 -228.6)"/>
</svg>
